<?xml version="1.0" encoding="utf-8"?>
<!-- Generator: Adobe Illustrator 24.0.2, SVG Export Plug-In . SVG Version: 6.00 Build 0)  -->
<svg version="1.1" xmlns="http://www.w3.org/2000/svg" xmlns:xlink="http://www.w3.org/1999/xlink" x="0px" y="0px"
	 viewBox="0 0 256 256" style="enable-background:new 0 0 256 256;" xml:space="preserve">
<style type="text/css">
	.st0{fill:#002337;}
	.st1{fill:#A06255;}
	.st2{fill:#874F45;}
	.st3{opacity:0.5;fill:#282828;}
	.st4{fill:#8B153A;}
	.st5{fill:#242A3F;}
	.st6{fill:#EE2161;}
	.st7{fill:#FFFEFD;}
	.st8{fill:#F4BAB0;}
	.st9{fill:#EDA39D;}
	.st10{fill:#2F3654;}
	.st11{fill:#282828;}
	.st12{fill:#F7A41A;}
	.st13{fill:#F4821C;}
	.st14{fill:#C69483;}
	.st15{fill:#E2B39F;}
	.st16{fill:#DB6F16;}
	.st17{fill:#492D1A;}
	.st18{fill:#D8D8D8;}
	.st19{fill:#60371B;}
	.st20{fill:#3D2515;}
	.st21{fill:#C6C6C6;}
	.st22{fill:#543018;}
	.st23{fill:#FCBC5E;}
	.st24{fill:#D3A292;}
	.st25{fill:#BC8E82;}
	.st26{fill:#5B4231;}
	.st27{fill:#D3A697;}
	.st28{fill:#F4D7CE;}
	.st29{fill:#FFFFFF;}
	.st30{fill:#CC9D8D;}
	.st31{fill:#825F48;}
	.st32{fill:#C47B76;}
	.st33{fill:#C18F7E;}
	.st34{fill:#8AFCFF;}
	.st35{fill:#CAFEFF;}
	.st36{fill:#E5A5A1;}
	.st37{fill:#C11414;}
	.st38{fill:#FC4949;}
	.st39{fill:#E61421;}
	.st40{fill:#D39F9C;}
	.st41{fill:#8E6444;}
	.st42{fill:#DDA69E;}
	.st43{fill:#720E32;}
	.st44{fill:#D89D95;}
	.st45{fill:#DB908F;}
	.st46{fill:#F7DEDA;}
	.st47{fill:#B27D59;}
	.st48{fill:#FFDDD7;}
	.st49{fill:#96522C;}
	.st50{fill:#824527;}
	.st51{fill:#C9006E;}
	.st52{fill:#FF61A9;}
	.st53{fill:#E84697;}
	.st54{fill:#723C24;}
	.st55{fill:#60311E;}
	.st56{fill:#7F4325;}
	.st57{fill:#6D3A21;}
	.st58{fill:#3F3F3F;}
	.st59{fill:#C3DD85;}
	.st60{fill:#303030;}
	.st61{fill:#E5ACA3;}
	.st62{fill:#D69C9A;}
	.st63{fill:#776356;}
	.st64{fill:#DBBDA9;}
	.st65{fill:#F9CDC7;}
	.st66{fill:#499327;}
</style>
<g id="Layer_1">
</g>
<g id="head">
</g>
<g id="K-rightarm">
</g>
<g id="K-rightarm_x5F_low">
</g>
<g id="K-lefttarm">
</g>
<g id="K-leftarm_x5F_low">
</g>
<g id="K-rightleg">
</g>
<g id="K-rightleg_low">
</g>
<g id="K-leftleg">
</g>
<g id="K-leftleg_low">
</g>
<g id="K-rightfoot">
</g>
<g id="K-leftfoot">
</g>
<g id="K-body">
</g>
<g id="K-neck">
</g>
<g id="K_x5F_head">
</g>
<g id="K_x5F_brow">
</g>
<g id="K-bril">
</g>
<g id="K-headicon">
	<path class="st37" d="M207.01,249.18c0-21.47-17.4-38.87-38.87-38.87h0v0.16c-0.04,0-0.07,0-0.11,0
		c-14.01,0-25.37,11.36-25.37,25.37c0,14.01,7.78,23.73,24.14,24.96c0.94,0.07,3.09,0.35,4.01,0.25h36.2V249.18z"/>
	<path class="st37" d="M88.65,210.47v-0.16h0c-21.47,0-38.87,17.4-38.87,38.87v11.88h36.09c0.91,0.1,1.84-0.25,2.78-0.25
		c14.01,0,25.37-10.95,25.37-24.96C114.01,221.83,102.66,210.47,88.65,210.47z"/>
	<path class="st38" d="M153.43,197.36c-7.45-4.09-16.35-6.48-25.91-6.48h0c-9.56,0-18.46,2.39-25.91,6.48
		c-13,7.14-21.59,19.48-21.59,33.51v156.52h95.02V230.87C175.03,216.83,166.43,204.49,153.43,197.36z"/>
	<path class="st39" d="M127.52,223.96L127.52,223.96c14.31,0,25.91-11.6,25.91-25.91v-0.69c-7.45-4.09-16.35-6.48-25.91-6.48h0
		c-9.56,0-18.46,2.39-25.91,6.48v0.69C101.6,212.35,113.21,223.96,127.52,223.96z"/>
	<path class="st39" d="M127.52,250.26h-0.01c-2.97,0-5.39-2.43-5.39-5.39V221.1c0-2.97,2.43-5.39,5.39-5.39h0.01
		c2.97,0,5.39,2.43,5.39,5.39v23.77C132.92,247.83,130.49,250.26,127.52,250.26z"/>
	<circle class="st29" cx="127.52" cy="226.51" r="1.08"/>
	<circle class="st29" cx="127.52" cy="232.99" r="1.08"/>
	<circle class="st29" cx="127.52" cy="239.46" r="1.08"/>
	<circle class="st29" cx="127.52" cy="245.94" r="1.08"/>
	<g>
		<path class="st8" d="M127.52,204.89L127.52,204.89c-12.49,0-22.62-10.13-22.62-22.62v15.14c0,12.49,10.13,22.62,22.62,22.62h0
			c12.49,0,22.62-10.13,22.62-22.62v-15.14C150.14,194.76,140.01,204.89,127.52,204.89z"/>
		<path class="st40" d="M137.32,166.04h-19.61c-7.08,0-12.82,5.74-12.82,12.82v3.4c0,12.49,10.13,22.62,22.62,22.62h0
			c12.49,0,22.62-10.13,22.62-22.62v-3.4C150.14,171.78,144.4,166.04,137.32,166.04z"/>
	</g>
	<path class="st41" d="M185.54,120.02h-0.02c-5.93,0-10.79-4.85-10.79-10.79v-73.5h0.02c11.91,0,21.57,9.66,21.57,21.57v51.93
		C196.33,115.17,191.47,120.02,185.54,120.02z"/>
	<path class="st41" d="M70.3,119.61h-0.02c-5.93,0-10.79-4.85-10.79-10.79v-62.3c0-5.93,4.85-10.79,10.79-10.79h0.02
		c5.93,0,10.79,4.85,10.79,10.79v62.3C81.09,114.76,76.24,119.61,70.3,119.61z"/>
	<path class="st8" d="M127.99,190.88L127.99,190.88c-35.52,0-64.31-28.76-64.31-64.24V91c0-35.48,28.79-64.24,64.31-64.24h0
		c35.52,0,64.31,28.76,64.31,64.24v35.63C192.3,162.11,163.51,190.88,127.99,190.88z"/>
	<g>
		<path class="st42" d="M127.99,184.74L127.99,184.74c-31.17,0-57.25-21.42-63.81-50.09c3.95,31.7,31.01,56.23,63.81,56.23h0
			c32.8,0,59.86-24.53,63.81-56.23C185.24,163.32,159.17,184.74,127.99,184.74z"/>
		<path class="st8" d="M192.3,91c0-35.48-28.79-64.24-64.31-64.24h0c-35.52,0-64.31,28.76-64.31,64.24v35.63
			c0,2.71,0.17,5.39,0.5,8.02c6.56,28.67,32.64,50.09,63.81,50.09h0c31.17,0,57.25-21.42,63.81-50.09c0.33-2.63,0.5-5.3,0.5-8.02V91
			z"/>
	</g>
	<path class="st4" d="M99.1,133.65h57.91c4.8,0,8.34,4.52,7.15,9.17c-4.1,16.06-18.71,27.95-36.11,27.95
		c-17.4,0-32.01-11.88-36.11-27.95C90.77,138.17,94.3,133.65,99.1,133.65z"/>
	<path class="st43" d="M139.87,156.32H118.4c-3.3,0-6-2.7-6-6v-0.96c0-3.3,2.7-6,6-6h21.47c3.3,0,6,2.7,6,6v0.96
		C145.87,153.62,143.17,156.32,139.87,156.32z"/>
	<path class="st6" d="M161.93,149.11c-5.89,12.78-18.83,21.65-33.87,21.65c-5.59,0-10.89-1.23-15.64-3.43
		c0.12-10.23,8.52-18.57,18.78-18.57h27.2C159.6,148.77,160.78,148.89,161.93,149.11z"/>
	<path class="st44" d="M167.45,75.61h-18.31c-1.79,0-3.26-1.47-3.26-3.26v-0.01c0-1.79,1.47-3.26,3.26-3.26h18.31
		c1.79,0,3.26,1.47,3.26,3.26v0.01C170.71,74.14,169.24,75.61,167.45,75.61z"/>
	<path class="st7" d="M100.53,133.65h56.15v1.58c0,2.7-2.19,4.89-4.89,4.89h-46.36c-2.7,0-4.89-2.19-4.89-4.89V133.65z"/>
	<path class="st41" d="M165.32,72.1h-14.05c-2.97,0-5.39-2.43-5.39-5.39V66.7c0-2.97,2.43-5.39,5.39-5.39h14.05
		c2.97,0,5.39,2.43,5.39,5.39v0.01C170.71,69.68,168.28,72.1,165.32,72.1z"/>
	<path class="st41" d="M188.16,54.83H90.08c-28.59,0-51.77-23.18-51.77-51.77V3h98.08c28.59,0,51.77,23.18,51.77,51.77V54.83z"/>
	<g>
		<g>
			<circle class="st29" cx="158.29" cy="92.08" r="13.5"/>
		</g>
		<circle class="st11" cx="158.29" cy="92.08" r="6.07"/>
	</g>
	<g>
		<g>
			<circle class="st29" cx="97.83" cy="92.08" r="13.5"/>
		</g>
		<circle class="st11" cx="97.83" cy="92.08" r="6.07"/>
	</g>
	<path class="st36" d="M128.6,123.93c-5.37,0-9.72-4.35-9.72-9.72v5.4c0,5.37,4.35,9.72,9.72,9.72c5.37,0,9.72-4.35,9.72-9.72v-5.4
		C138.32,119.58,133.97,123.93,128.6,123.93z"/>
	<path class="st41" d="M104.85,81.82H90.8c-2.97,0-5.39-2.43-5.39-5.39v-0.01c0-2.97,2.43-5.39,5.39-5.39h14.05
		c2.97,0,5.39,2.43,5.39,5.39v0.01C110.24,79.39,107.82,81.82,104.85,81.82z"/>
	<g>
		<path class="st8" d="M200.29,116.11c0-4.49-3.63-8.13-8.11-8.15v-5.33c7.24,0,13.1,5.87,13.1,13.1c0,7.24-5.87,13.1-13.1,13.1
			v-4.57C196.66,124.24,200.29,120.6,200.29,116.11z"/>
		<path class="st45" d="M200.29,116.11c0,4.49-3.63,8.13-8.11,8.15v-16.3C196.66,107.98,200.29,111.62,200.29,116.11z"/>
	</g>
	<g>
		<path class="st8" d="M55.57,116.11c0-4.49,3.63-8.13,8.11-8.15v-5.33c-7.24,0-13.1,5.87-13.1,13.1c0,7.24,5.87,13.1,13.1,13.1
			v-4.57C59.2,124.24,55.57,120.6,55.57,116.11z"/>
		<path class="st45" d="M55.57,116.11c0,4.49,3.63,8.13,8.11,8.15v-16.3C59.2,107.98,55.57,111.62,55.57,116.11z"/>
	</g>
	<path class="st46" d="M91.1,63.97H80.46c-1.12,0-2.04-0.92-2.04-2.04v0c0-1.12,0.92-2.04,2.04-2.04H91.1
		c1.12,0,2.04,0.92,2.04,2.04v0C93.14,63.05,92.22,63.97,91.1,63.97z"/>
	<path class="st47" d="M83.73,11.59H54.68c-1.12,0-2.04-0.92-2.04-2.04v0c0-1.12,0.92-2.04,2.04-2.04h29.06
		c1.12,0,2.04,0.92,2.04,2.04v0C85.78,10.67,84.86,11.59,83.73,11.59z"/>
	<path class="st47" d="M92.74,22.23H69.41c-1.12,0-2.04-0.92-2.04-2.04v0c0-1.12,0.92-2.04,2.04-2.04h23.33
		c1.12,0,2.04,0.92,2.04,2.04v0C94.78,21.31,93.86,22.23,92.74,22.23z"/>
	<path class="st47" d="M103.79,11.59h-9.42c-1.12,0-2.04-0.92-2.04-2.04v0c0-1.12,0.92-2.04,2.04-2.04h9.42
		c1.12,0,2.04,0.92,2.04,2.04v0C105.83,10.67,104.91,11.59,103.79,11.59z"/>
</g>
</svg>
