<?xml version="1.0" encoding="utf-8"?>
<!-- Generator: Adobe Illustrator 24.0.2, SVG Export Plug-In . SVG Version: 6.00 Build 0)  -->
<svg version="1.1" xmlns="http://www.w3.org/2000/svg" xmlns:xlink="http://www.w3.org/1999/xlink" x="0px" y="0px"
	 viewBox="0 0 256 256" style="enable-background:new 0 0 256 256;" xml:space="preserve">
<style type="text/css">
	.st0{fill:#002337;}
	.st1{fill:#A06255;}
	.st2{fill:#874F45;}
	.st3{opacity:0.5;fill:#282828;}
	.st4{fill:#8B153A;}
	.st5{fill:#242A3F;}
	.st6{fill:#EE2161;}
	.st7{fill:#FFFEFD;}
	.st8{fill:#F4BAB0;}
	.st9{fill:#EDA39D;}
	.st10{fill:#2F3654;}
	.st11{fill:#282828;}
	.st12{fill:#F7A41A;}
	.st13{fill:#F4821C;}
	.st14{fill:#C69483;}
	.st15{fill:#E2B39F;}
	.st16{fill:#DB6F16;}
	.st17{fill:#492D1A;}
	.st18{fill:#D8D8D8;}
	.st19{fill:#60371B;}
	.st20{fill:#3D2515;}
	.st21{fill:#C6C6C6;}
	.st22{fill:#543018;}
	.st23{fill:#FCBC5E;}
	.st24{fill:#D3A292;}
	.st25{fill:#BC8E82;}
	.st26{fill:#5B4231;}
	.st27{fill:#D3A697;}
	.st28{fill:#F4D7CE;}
	.st29{fill:#FFFFFF;}
	.st30{fill:#CC9D8D;}
	.st31{fill:#825F48;}
	.st32{fill:#C47B76;}
	.st33{fill:#C18F7E;}
	.st34{fill:#8AFCFF;}
	.st35{fill:#CAFEFF;}
	.st36{fill:#E5A5A1;}
	.st37{fill:#C11414;}
	.st38{fill:#FC4949;}
	.st39{fill:#E61421;}
	.st40{fill:#D39F9C;}
	.st41{fill:#8E6444;}
	.st42{fill:#DDA69E;}
	.st43{fill:#720E32;}
	.st44{fill:#D89D95;}
	.st45{fill:#DB908F;}
	.st46{fill:#F7DEDA;}
	.st47{fill:#B27D59;}
	.st48{fill:#FFDDD7;}
	.st49{fill:#96522C;}
	.st50{fill:#824527;}
	.st51{fill:#C9006E;}
	.st52{fill:#FF61A9;}
	.st53{fill:#E84697;}
	.st54{fill:#723C24;}
	.st55{fill:#60311E;}
	.st56{fill:#7F4325;}
	.st57{fill:#6D3A21;}
	.st58{fill:#3F3F3F;}
	.st59{fill:#C3DD85;}
	.st60{fill:#303030;}
	.st61{fill:#E5ACA3;}
	.st62{fill:#D69C9A;}
	.st63{fill:#776356;}
	.st64{fill:#DBBDA9;}
	.st65{fill:#F9CDC7;}
	.st66{fill:#499327;}
</style>
<g id="Layer_1">
</g>
<g id="head">
</g>
<g id="K-rightarm">
</g>
<g id="K-rightarm_x5F_low">
</g>
<g id="K-lefttarm">
</g>
<g id="K-leftarm_x5F_low">
</g>
<g id="K-rightleg">
</g>
<g id="K-rightleg_low">
</g>
<g id="K-leftleg">
</g>
<g id="K-leftleg_low">
</g>
<g id="K-rightfoot">
</g>
<g id="K-leftfoot">
</g>
<g id="K-body">
</g>
<g id="K-neck">
</g>
<g id="K_x5F_head">
</g>
<g id="K_x5F_brow">
</g>
<g id="K-bril">
</g>
<g id="K-headicon">
	<g>
		<path class="st59" d="M190.01,206.7L190.01,206.7l0,0.22c-0.25-0.01-0.51-0.02-0.76-0.02c-14.14,0-25.6,11.46-25.6,25.6
			c0,10.63,14.91,20.08,22.3,24.12c2.5,1.37,5.31,2.07,8.17,2.07h35.72v-12.17C229.84,224.53,212.01,206.7,190.01,206.7z"/>
	</g>
	<path class="st59" d="M67.64,206.49c-1.23,0-2.43,0.09-3.62,0.26c-21.12,0.98-37.95,18.41-37.95,39.78v12.17h36.5
		c2.3,0,4.57-0.55,6.62-1.59c7.31-3.74,24.26-13.62,24.26-24.8C93.45,218.04,81.89,206.49,67.64,206.49z"/>
	<path class="st60" d="M166.26,200.91H95.78c-7.34,0-13.28,5.95-13.28,13.28v173.78h97.04V214.19
		C179.55,206.86,173.6,200.91,166.26,200.91z"/>
	<g>
		<path class="st61" d="M131.06,205.09L131.06,205.09c-12.8,0-23.18-10.38-23.18-23.18v11.56c0,12.8,10.38,23.18,23.18,23.18h0
			c12.8,0,23.18-10.38,23.18-23.18v-11.56C154.24,194.72,143.86,205.09,131.06,205.09z"/>
		<path class="st62" d="M141.1,161.34h-20.09c-7.25,0-13.13,5.88-13.13,13.13v7.44c0,12.8,10.38,23.18,23.18,23.18h0
			c12.8,0,23.18-10.38,23.18-23.18v-7.44C154.24,167.22,148.36,161.34,141.1,161.34z"/>
	</g>
	<path class="st63" d="M132.03,153.6h-0.82c-39,0-70.61-31.61-70.61-70.61v0C60.6,43.78,92.38,12,131.59,12h0.05
		c39.21,0,70.99,31.78,70.99,70.99v0C202.63,121.99,171.02,153.6,132.03,153.6z"/>
	<path class="st63" d="M131.09,54.04c15.9,0,28.78-12.88,28.78-28.76c0-0.1-0.01-0.2-0.01-0.3c-8.55-4.06-18.12-6.34-28.22-6.34h0
		c-10.54,0-20.49,2.49-29.33,6.89C102.45,41.29,115.28,54.04,131.09,54.04z"/>
	<g>
		<path class="st61" d="M131.64,181.42L131.64,181.42c-36.38,0-65.87-29.47-65.87-65.82v5.37c0,36.35,29.49,65.82,65.87,65.82h0
			c36.38,0,65.87-29.47,65.87-65.82v-5.37C197.51,151.95,168.02,181.42,131.64,181.42z"/>
		<path class="st8" d="M159.86,24.98c0,0.1,0.01,0.2,0.01,0.3c0,15.89-12.89,28.76-28.78,28.76c-15.81,0-28.64-12.74-28.78-28.51
			C80.66,36.31,65.78,58.64,65.78,84.46v31.14c0,36.35,29.49,65.82,65.87,65.82h0c36.38,0,65.87-29.47,65.87-65.82V84.46
			C197.51,58.2,182.12,35.54,159.86,24.98z"/>
	</g>
	<path class="st4" d="M161.28,128.16h-59.33c-4.92,0-8.54,4.63-7.33,9.4c4.2,16.46,19.17,28.63,36.99,28.63s32.79-12.17,36.99-28.63
		C169.82,132.79,166.2,128.16,161.28,128.16z"/>
	<path class="st6" d="M96.92,144c6.03,13.09,19.3,22.18,34.7,22.18c5.73,0,11.15-1.26,16.03-3.51
		c-0.13-10.49-8.73-19.03-19.24-19.03h-27.86C99.3,143.64,98.09,143.77,96.92,144z"/>
	<path class="st7" d="M159.82,128.16H102.3v1.62c0,2.77,2.25,5.01,5.01,5.01h47.5c2.77,0,5.01-2.25,5.01-5.01V128.16z"/>
	<g>
		<g>
			<circle class="st29" cx="162.59" cy="85.57" r="13.83"/>
		</g>
		<circle class="st11" cx="162.59" cy="85.57" r="7.25"/>
	</g>
	<g>
		<g>
			<circle class="st29" cx="100.65" cy="85.57" r="13.83"/>
		</g>
		<circle class="st11" cx="100.65" cy="85.57" r="7.25"/>
	</g>
	<path class="st36" d="M132.17,118.2c-5.5,0-9.96-4.46-9.96-9.96v5.53c0,5.5,4.46,9.96,9.96,9.96s9.96-4.46,9.96-9.96v-5.53
		C142.12,113.74,137.67,118.2,132.17,118.2z"/>
	<path class="st63" d="M170.43,75.06h-15.68c-2.69,0-4.88-2.2-4.88-4.88v-1.29c0-2.69,2.2-4.88,4.88-4.88h15.68
		c2.69,0,4.88,2.2,4.88,4.88v1.29C175.31,72.86,173.11,75.06,170.43,75.06z"/>
	<path class="st63" d="M108.48,75.06H92.8c-2.69,0-4.88-2.2-4.88-4.88v-1.29c0-2.69,2.2-4.88,4.88-4.88h15.68
		c2.69,0,4.88,2.2,4.88,4.88v1.29C113.36,72.86,111.16,75.06,108.48,75.06z"/>
	<g>
		<path class="st8" d="M205.7,110.02c0-4.53-3.66-8.2-8.19-8.22v-5.38c7.3,0,13.22,5.92,13.22,13.22c0,7.3-5.92,13.22-13.22,13.22
			v-4.61C202.03,118.23,205.7,114.55,205.7,110.02z"/>
		<path class="st45" d="M205.7,110.02c0,4.53-3.66,8.2-8.19,8.22V101.8C202.03,101.82,205.7,105.49,205.7,110.02z"/>
	</g>
	<g>
		<path class="st8" d="M57.59,110.02c0-4.53,3.66-8.2,8.19-8.22v-5.38c-7.3,0-13.22,5.92-13.22,13.22c0,7.3,5.92,13.22,13.22,13.22
			v-4.61C61.25,118.23,57.59,114.55,57.59,110.02z"/>
		<path class="st45" d="M57.59,110.02c0,4.53,3.66,8.2,8.19,8.22V101.8C61.25,101.82,57.59,105.49,57.59,110.02z"/>
	</g>
	<circle class="st64" cx="118.02" cy="22.52" r="5.16"/>
	<circle class="st64" cx="108.93" cy="27.89" r="2.68"/>
	<path class="st65" d="M97.73,45.44h-8.16c-1.5,0-2.73-1.23-2.73-2.73v-0.72c0-1.5,1.23-2.73,2.73-2.73h8.16
		c1.5,0,2.73,1.23,2.73,2.73v0.72C100.47,44.21,99.24,45.44,97.73,45.44z"/>
	<path class="st66" d="M85.11,381.54h26.09V196.16H85.11c-14.33,0-25.94,11.61-25.94,25.94v133.5
		C59.17,369.93,70.79,381.54,85.11,381.54z"/>
	<path class="st59" d="M100.55,186.25h10.66v9.91H91.79V195C91.79,190.17,95.71,186.25,100.55,186.25z"/>
	<path class="st60" d="M105.23,361.76h0.39c0.8,0,1.46-0.66,1.46-1.46V212.49c0-0.8-0.66-1.46-1.46-1.46h-0.39
		c-0.8,0-1.46,0.66-1.46,1.46V360.3C103.77,361.1,104.43,361.76,105.23,361.76z"/>
	<path class="st66" d="M176.31,382.4h-25.46V197.02h25.46c11.71,0,21.2,9.49,21.2,21.2V361.2
		C197.51,372.91,188.02,382.4,176.31,382.4z"/>
	<path class="st59" d="M161.5,187.08h-10.66v9.91h19.41v-1.16C170.25,191,166.34,187.08,161.5,187.08z"/>
</g>
</svg>
