<?xml version="1.0" encoding="utf-8"?>
<!-- Generator: Adobe Illustrator 24.0.2, SVG Export Plug-In . SVG Version: 6.00 Build 0)  -->
<svg version="1.1" xmlns="http://www.w3.org/2000/svg" xmlns:xlink="http://www.w3.org/1999/xlink" x="0px" y="0px"
	 viewBox="0 0 256 256" style="enable-background:new 0 0 256 256;" xml:space="preserve">
<style type="text/css">
	.st0{fill:#002337;}
	.st1{fill:#A06255;}
	.st2{fill:#874F45;}
	.st3{opacity:0.5;fill:#282828;}
	.st4{fill:#8B153A;}
	.st5{fill:#242A3F;}
	.st6{fill:#EE2161;}
	.st7{fill:#FFFEFD;}
	.st8{fill:#F4BAB0;}
	.st9{fill:#EDA39D;}
	.st10{fill:#2F3654;}
	.st11{fill:#282828;}
	.st12{fill:#F7A41A;}
	.st13{fill:#F4821C;}
	.st14{fill:#C69483;}
	.st15{fill:#E2B39F;}
	.st16{fill:#DB6F16;}
	.st17{fill:#492D1A;}
	.st18{fill:#D8D8D8;}
	.st19{fill:#60371B;}
	.st20{fill:#3D2515;}
	.st21{fill:#C6C6C6;}
	.st22{fill:#543018;}
	.st23{fill:#FCBC5E;}
	.st24{fill:#D3A292;}
	.st25{fill:#BC8E82;}
	.st26{fill:#5B4231;}
	.st27{fill:#D3A697;}
	.st28{fill:#F4D7CE;}
	.st29{fill:#FFFFFF;}
	.st30{fill:#CC9D8D;}
	.st31{fill:#825F48;}
	.st32{fill:#C47B76;}
	.st33{fill:#C18F7E;}
	.st34{fill:#8AFCFF;}
	.st35{fill:#CAFEFF;}
</style>
<g id="Layer_1">
</g>
<g id="head">
</g>
<g id="K-rightarm">
</g>
<g id="K-rightarm_x5F_low">
</g>
<g id="K-lefttarm">
</g>
<g id="K-leftarm_x5F_low">
</g>
<g id="K-rightleg">
</g>
<g id="K-rightleg_low">
</g>
<g id="K-leftleg">
</g>
<g id="K-leftleg_low">
</g>
<g id="K-rightfoot">
</g>
<g id="K-leftfoot">
</g>
<g id="K-body">
</g>
<g id="K-neck">
</g>
<g id="K_x5F_head">
</g>
<g id="K_x5F_brow">
</g>
<g id="K-bril">
</g>
<g id="K-headicon">
	<path class="st13" d="M185.9,215.45L185.9,215.45L185.9,215.45c-0.06,0-0.11,0-0.17,0c-11.34,0-20.53,9.19-20.53,20.53
		c0,11.34,9.19,20.53,20.53,20.53c0.06,0,0.11,0,0.17,0c0,2.39,0,8.45,0,8.45v6.32v89.23c0,10.4,8.24,19.1,18.64,19.27
		c10.62,0.18,19.29-8.38,19.29-18.96v-89.54v-6.32v-11.59C223.82,232.43,206.84,215.45,185.9,215.45z"/>
	<path class="st13" d="M68.08,215.45L68.08,215.45L68.08,215.45c0.06,0,0.11,0,0.17,0c11.34,0,20.53,9.19,20.53,20.53
		c0,11.34-9.19,20.53-20.53,20.53c-0.06,0-0.11,0-0.17,0c0,2.39,0,8.45,0,8.45v6.32v89.23c0,10.4-8.24,19.1-18.64,19.27
		c-10.62,0.18-19.29-8.38-19.29-18.96v-89.54v-6.32v-11.59C30.15,232.43,47.13,215.45,68.08,215.45z"/>
	<path class="st23" d="M173.88,388l23.51-121.26c6.6-33.9-11.5-68.2-43.66-80.81c-8.16-3.2-17.03-4.96-26.29-4.96h0
		c-9.26,0-18.13,1.76-26.29,4.96c-32.16,12.61-50.26,46.9-43.66,80.81L81.09,388H173.88z"/>
	<circle class="st13" cx="127.68" cy="202.42" r="28.82"/>
	
		<rect x="114.02" y="244.92" transform="matrix(0.7071 0.7071 -0.7071 0.7071 220.0447 -14.4662)" class="st13" width="26.93" height="26.93"/>
	<g>
		<path class="st24" d="M127.52,210.95c-12.19,0-22.07-9.88-22.07-22.07v13.98c0,12.19,9.88,22.07,22.07,22.07
			s22.07-9.88,22.07-22.07v-13.98C149.59,201.07,139.71,210.95,127.52,210.95z"/>
		<path class="st25" d="M135.45,172.26h-15.87c-7.81,0-14.14,6.33-14.14,14.14v2.48c0,12.19,9.88,22.07,22.07,22.07
			s22.07-9.88,22.07-22.07v-2.48C149.59,178.59,143.26,172.26,135.45,172.26z"/>
	</g>
	<path class="st26" d="M212.88,104.72c4.23-1.92,7.18-6.18,7.18-11.13s-2.95-9.21-7.18-11.13c3.59-2.95,5.34-7.83,4.06-12.61
		c-1.28-4.78-5.23-8.13-9.82-8.89c2.7-3.78,3.13-8.94,0.65-13.23c-2.48-4.29-7.16-6.5-11.79-6.05c1.63-4.35,0.71-9.45-2.79-12.95
		s-8.6-4.43-12.95-2.79c0.45-4.63-1.76-9.31-6.05-11.79s-9.45-2.05-13.23,0.65c-0.76-4.59-4.11-8.54-8.89-9.82
		c-4.78-1.28-9.66,0.47-12.61,4.06c-1.92-4.23-6.18-7.18-11.13-7.18c-4.95,0-9.21,2.95-11.13,7.18c-2.95-3.59-7.83-5.34-12.61-4.06
		c-4.78,1.28-8.13,5.23-8.89,9.82c-3.78-2.7-8.94-3.13-13.23-0.65s-6.5,7.16-6.05,11.79c-4.35-1.63-9.45-0.71-12.95,2.79
		c-3.5,3.5-4.43,8.6-2.79,12.95c-4.63-0.45-9.31,1.76-11.79,6.05s-2.05,9.45,0.65,13.23c-4.59,0.76-8.54,4.11-9.82,8.89
		c-1.28,4.78,0.47,9.66,4.06,12.61c-4.23,1.92-7.18,6.18-7.18,11.13s2.95,9.21,7.18,11.13c-3.59,2.95-5.34,7.83-4.06,12.61
		c1.28,4.78,5.23,8.13,9.82,8.89c-2.7,3.78-3.13,8.94-0.65,13.23s7.16,6.5,11.79,6.05c-1.63,4.35-0.71,9.45,2.79,12.95
		c3.5,3.5,8.6,4.43,12.95,2.79c-0.45,4.63,1.76,9.31,6.05,11.79c4.29,2.48,9.45,2.05,13.23-0.65c0.76,4.59,4.11,8.54,8.89,9.82
		c4.78,1.28,9.66-0.47,12.61-4.06c1.92,4.23,6.18,7.18,11.13,7.18c4.95,0,9.21-2.95,11.13-7.18c2.95,3.59,7.83,5.34,12.61,4.06
		c4.78-1.28,8.13-5.23,8.89-9.82c3.78,2.7,8.94,3.13,13.23,0.65c4.29-2.48,6.5-7.16,6.05-11.79c4.35,1.63,9.45,0.71,12.95-2.79
		c3.5-3.5,4.43-8.6,2.79-12.95c4.63,0.45,9.31-1.76,11.79-6.05c2.48-4.29,2.05-9.45-0.65-13.23c4.59-0.76,8.54-4.11,9.82-8.89
		C218.22,112.55,216.48,107.68,212.88,104.72z"/>
	<g>
		<path class="st27" d="M128.11,188.99L128.11,188.99c-34.65,0-62.75-28.06-62.75-62.68v7.5c0,34.62,28.09,62.68,62.75,62.68h0
			c34.65,0,62.75-28.06,62.75-62.68v-7.5C190.86,160.93,162.77,188.99,128.11,188.99z"/>
		<path class="st15" d="M128.11,36.37L128.11,36.37c-34.65,0-62.75,28.06-62.75,62.68v27.26c0,34.62,28.09,62.68,62.75,62.68h0
			c34.65,0,62.75-28.06,62.75-62.68V99.05C190.86,64.44,162.77,36.37,128.11,36.37z"/>
	</g>
	<path class="st28" d="M113.59,56.33h-12.88c-1.67,0-3.04-1.37-3.04-3.04v-1.43c0-1.67,1.37-3.04,3.04-3.04h12.88
		c1.67,0,3.04,1.37,3.04,3.04v1.43C116.63,54.96,115.26,56.33,113.59,56.33z"/>
	<path class="st4" d="M156.29,140.66h-56.5c-4.68,0-8.13,4.41-6.98,8.95c4,15.67,18.25,27.26,35.23,27.26s31.23-11.59,35.23-27.26
		C164.43,145.07,160.97,140.66,156.29,140.66z"/>
	<path class="st6" d="M95,155.75c5.74,12.47,18.37,21.13,33.04,21.13c5.45,0,10.62-1.2,15.26-3.35
		c-0.12-9.98-8.31-18.12-18.33-18.12H98.45C97.27,155.41,96.12,155.53,95,155.75z"/>
	<path class="st7" d="M154.91,140.66h-54.78v1.55c0,2.64,2.14,4.78,4.78,4.78h45.23c2.64,0,4.78-2.14,4.78-4.78V140.66z"/>
	<g>
		<g>
			<circle class="st29" cx="157.54" cy="100.11" r="13.17"/>
		</g>
		<circle class="st11" cx="157.54" cy="100.11" r="5.93"/>
	</g>
	<g>
		<g>
			<circle class="st29" cx="98.55" cy="100.11" r="13.17"/>
		</g>
		<circle class="st11" cx="98.55" cy="100.11" r="5.93"/>
	</g>
	<path class="st30" d="M128.57,131.18c-6.62,0-11.98-4.24-11.98-9.48v5.27c0,5.24,5.36,9.48,11.98,9.48
		c6.62,0,11.98-4.24,11.98-9.48v-5.27C140.55,126.94,135.19,131.18,128.57,131.18z"/>
	<circle class="st31" cx="86.81" cy="36.1" r="6.55"/>
	<circle class="st31" cx="182.06" cy="38.72" r="3.93"/>
	<circle class="st31" cx="73.7" cy="32.61" r="3.06"/>
	<circle class="st31" cx="95.11" cy="24.31" r="3.5"/>
	<g>
		<path class="st15" d="M57.54,124.17c0-4.33,3.5-7.84,7.83-7.86v-5.15c-6.98,0-12.64,5.66-12.64,12.64
			c0,6.98,5.66,12.64,12.64,12.64v-4.41C61.04,132.02,57.54,128.51,57.54,124.17z"/>
		<path class="st32" d="M57.54,124.17c0,4.33,3.5,7.84,7.83,7.86v-15.73C61.04,116.33,57.54,119.84,57.54,124.17z"/>
	</g>
	<g>
		<path class="st15" d="M198.69,121.64c0-4.33-3.5-7.84-7.83-7.86v-5.15c6.98,0,12.64,5.66,12.64,12.64
			c0,6.98-5.66,12.64-12.64,12.64v-4.41C195.18,129.48,198.69,125.97,198.69,121.64z"/>
		<path class="st32" d="M198.69,121.64c0,4.33-3.5,7.84-7.83,7.86v-15.73C195.18,113.79,198.69,117.31,198.69,121.64z"/>
	</g>
	<path class="st33" d="M110.28,79.62H81.29c-1.54,0-2.8-1.26-2.8-2.8v-1.31c0-1.54,1.26-2.8,2.8-2.8h28.98c1.54,0,2.8,1.26,2.8,2.8
		v1.31C113.07,78.36,111.81,79.62,110.28,79.62z"/>
	<path class="st33" d="M175.16,79.62h-27.67c-1.9-0.39-3.45-1.95-3.45-3.85v0c0-1.9,1.55-3.45,3.45-3.45h27.67
		c1.9,0,3.45,1.55,3.45,3.45v0C178.62,77.67,177.06,79.23,175.16,79.62z"/>
	<path class="st26" d="M108.81,76.14H82.76c-2.35,0-4.27-1.92-4.27-4.27v-2c0-2.35,1.92-4.27,4.27-4.27h26.05
		c2.35,0,4.27,1.92,4.27,4.27v2C113.07,74.22,111.15,76.14,108.81,76.14z"/>
	<path class="st26" d="M174.35,76.14h-26.05c-2.35,0-4.27-1.92-4.27-4.27v-2c0-2.35,1.92-4.27,4.27-4.27h26.05
		c2.35,0,4.27,1.92,4.27,4.27v2C178.62,74.22,176.7,76.14,174.35,76.14z"/>
	<g>
		<path class="st17" d="M176.24,83.1h-31.21c-3.93,0-7.12,3.19-7.12,7.12v3.7h-20.07v-3.7c0-3.93-3.19-7.12-7.12-7.12H79.52
			c-3.93,0-7.12,3.19-7.12,7.12v15.6c0,12.55,10.18,22.73,22.73,22.73h0c12.55,0,22.73-10.18,22.73-22.73v-4.33h20.07v4.33
			c0,12.55,10.18,22.73,22.73,22.73h0c12.55,0,22.73-10.18,22.73-22.73v-15.6C183.37,86.29,180.18,83.1,176.24,83.1z M110.27,105.82
			c0,8.37-6.78,15.15-15.15,15.15h0c-8.37,0-15.15-6.78-15.15-15.15V90.67h30.3V105.82z M175.79,105.82
			c0,8.37-6.78,15.15-15.15,15.15h0c-8.37,0-15.15-6.78-15.15-15.15V90.67h30.3V105.82z"/>
		<g>
			<polygon class="st34" points="79.97,90.67 79.97,102.9 92.19,90.67 			"/>
			<path class="st34" d="M85.54,117.56c2.61,2.13,5.94,3.41,9.57,3.41c8.37,0,15.15-6.78,15.15-15.15V92.84L85.54,117.56z"/>
			<path class="st34" d="M98.37,90.67l-18.11,18.11c0.23,1.14,0.59,2.24,1.06,3.27l21.38-21.38H98.37z"/>
			<path class="st35" d="M92.19,90.67L79.97,102.9v2.93c0,1.01,0.1,2,0.29,2.95l18.11-18.11H92.19z"/>
			<path class="st35" d="M110.27,90.67h-7.58l-21.38,21.38c0.97,2.15,2.42,4.04,4.23,5.51l24.73-24.73V90.67z"/>
		</g>
		<g>
			<polygon class="st34" points="145.49,90.67 145.49,102.9 157.71,90.67 			"/>
			<path class="st34" d="M151.07,117.56c2.61,2.13,5.94,3.41,9.57,3.41c8.37,0,15.15-6.78,15.15-15.15V92.84L151.07,117.56z"/>
			<path class="st34" d="M163.89,90.67l-18.11,18.11c0.23,1.14,0.59,2.24,1.06,3.27l21.38-21.38H163.89z"/>
			<path class="st35" d="M157.71,90.67l-12.23,12.23v2.93c0,1.01,0.1,2,0.29,2.95l18.11-18.11H157.71z"/>
			<path class="st35" d="M175.79,90.67h-7.58l-21.38,21.38c0.97,2.15,2.42,4.04,4.23,5.51l24.73-24.73V90.67z"/>
		</g>
	</g>
</g>
</svg>
