<?xml version="1.0" encoding="utf-8"?>
<!-- Generator: Adobe Illustrator 24.0.2, SVG Export Plug-In . SVG Version: 6.00 Build 0)  -->
<svg version="1.1" xmlns="http://www.w3.org/2000/svg" xmlns:xlink="http://www.w3.org/1999/xlink" x="0px" y="0px"
	 viewBox="0 0 256 256" style="enable-background:new 0 0 256 256;" xml:space="preserve">
<style type="text/css">
	.st0{fill:#002337;}
	.st1{fill:#A06255;}
	.st2{fill:#874F45;}
	.st3{opacity:0.5;fill:#282828;}
	.st4{fill:#8B153A;}
	.st5{fill:#242A3F;}
	.st6{fill:#EE2161;}
	.st7{fill:#FFFEFD;}
	.st8{fill:#F4BAB0;}
	.st9{fill:#EDA39D;}
	.st10{fill:#2F3654;}
	.st11{fill:#282828;}
	.st12{fill:#F7A41A;}
	.st13{fill:#F4821C;}
	.st14{fill:#C69483;}
	.st15{fill:#E2B39F;}
	.st16{fill:#DB6F16;}
	.st17{fill:#492D1A;}
	.st18{fill:#D8D8D8;}
	.st19{fill:#60371B;}
	.st20{fill:#3D2515;}
	.st21{fill:#C6C6C6;}
	.st22{fill:#543018;}
	.st23{fill:#FCBC5E;}
	.st24{fill:#D3A292;}
	.st25{fill:#BC8E82;}
	.st26{fill:#5B4231;}
	.st27{fill:#D3A697;}
	.st28{fill:#F4D7CE;}
	.st29{fill:#FFFFFF;}
	.st30{fill:#CC9D8D;}
	.st31{fill:#825F48;}
	.st32{fill:#C47B76;}
	.st33{fill:#C18F7E;}
	.st34{fill:#8AFCFF;}
	.st35{fill:#CAFEFF;}
	.st36{fill:#E5A5A1;}
	.st37{fill:#C11414;}
	.st38{fill:#FC4949;}
	.st39{fill:#E61421;}
	.st40{fill:#D39F9C;}
	.st41{fill:#8E6444;}
	.st42{fill:#DDA69E;}
	.st43{fill:#720E32;}
	.st44{fill:#D89D95;}
	.st45{fill:#DB908F;}
	.st46{fill:#F7DEDA;}
	.st47{fill:#B27D59;}
	.st48{fill:#FFDDD7;}
	.st49{fill:#96522C;}
	.st50{fill:#824527;}
	.st51{fill:#C9006E;}
	.st52{fill:#FF61A9;}
	.st53{fill:#E84697;}
	.st54{fill:#723C24;}
	.st55{fill:#60311E;}
	.st56{fill:#7F4325;}
	.st57{fill:#6D3A21;}
	.st58{fill:#3F3F3F;}
	.st59{fill:#C3DD85;}
	.st60{fill:#303030;}
	.st61{fill:#E5ACA3;}
	.st62{fill:#D69C9A;}
	.st63{fill:#776356;}
	.st64{fill:#DBBDA9;}
	.st65{fill:#F9CDC7;}
	.st66{fill:#499327;}
</style>
<g id="Layer_1">
</g>
<g id="head">
</g>
<g id="K-rightarm">
</g>
<g id="K-rightarm_x5F_low">
</g>
<g id="K-lefttarm">
</g>
<g id="K-leftarm_x5F_low">
</g>
<g id="K-rightleg">
</g>
<g id="K-rightleg_low">
</g>
<g id="K-leftleg">
</g>
<g id="K-leftleg_low">
</g>
<g id="K-rightfoot">
</g>
<g id="K-leftfoot">
</g>
<g id="K-body">
</g>
<g id="K-neck">
</g>
<g id="K_x5F_head">
</g>
<g id="K_x5F_brow">
</g>
<g id="K-bril">
</g>
<g id="K-headicon">
	<rect x="128.59" y="142.64" class="st11" width="73.4" height="111.05"/>
	<path class="st11" d="M133.66,233.92h-6.79c-37.74,0-68.33-30.59-68.33-68.33V93.33C58.54,55.59,89.13,25,126.87,25h6.79
		C171.4,25,202,55.59,202,93.33v72.26C202,203.33,171.4,233.92,133.66,233.92z"/>
	<g>
		<path class="st51" d="M170.9,217.24c-1.32-0.24-2.68-0.38-4.07-0.38c-12.24,0-22.17,9.93-22.17,22.17
			c0,11.73,9.1,21.32,20.63,22.11v0.07h34.68c5.72,0,10.35-4.63,10.35-10.35v0C210.33,233.58,193.13,219.32,170.9,217.24z"/>
	</g>
	<g>
		<path class="st51" d="M115.67,239.04c0-12.24-9.93-22.17-22.17-22.17c-1.01,0-2.01,0.07-2.99,0.21
			c-23.35,1.26-41.78,15.9-41.78,33.79v0c0,5.72,4.63,10.35,10.35,10.35h34.69v-0.01C105.89,261.05,115.67,251.19,115.67,239.04z"/>
	</g>
	<g>
		<path class="st52" d="M136.99,261.21v-72.83c-2.42-0.37-4.91-0.57-7.46-0.57h0c-2.55,0-5.04,0.19-7.46,0.57v72.83
			c0,18.78-15.18,34.02-33.94,34.1v63.77h82.82v-63.77C152.18,295.23,136.99,279.99,136.99,261.21z"/>
		<path class="st53" d="M122.07,261.21v-72.83c-19.31,2.96-33.94,17.19-33.94,34.29v72.65
			C106.89,295.22,122.07,279.99,122.07,261.21z"/>
		<path class="st53" d="M136.99,188.37v72.83c0,18.78,15.19,34.02,33.95,34.11v-72.65C170.94,205.56,156.3,191.33,136.99,188.37z"/>
	</g>
	<g>
		<path class="st54" d="M129.53,198.29L129.53,198.29c-10.89,0-19.72-8.83-19.72-19.72v14.92c0,10.89,8.83,19.72,19.72,19.72h0
			c10.89,0,19.72-8.83,19.72-19.72v-14.92C149.25,189.47,140.42,198.29,129.53,198.29z"/>
		<path class="st55" d="M138.08,166.16h-17.09c-6.17,0-11.17,5-11.17,11.17v1.24c0,10.89,8.83,19.72,19.72,19.72h0
			c10.89,0,19.72-8.83,19.72-19.72v-1.24C149.25,171.17,144.25,166.16,138.08,166.16z"/>
	</g>
	<g>
		<path class="st49" d="M192.45,121.7c0-3.79-3.07-6.87-6.85-6.88v-4.51c6.11,0,11.07,4.96,11.07,11.07
			c0,6.11-4.96,11.07-11.07,11.07v-3.86C189.39,128.57,192.45,125.49,192.45,121.7z"/>
		<path class="st50" d="M192.45,121.7c0,3.79-3.07,6.87-6.85,6.88v-13.77C189.39,114.83,192.45,117.91,192.45,121.7z"/>
	</g>
	<g>
		<path class="st49" d="M67.03,121.7c0-3.79,3.07-6.87,6.85-6.88v-4.51c-6.11,0-11.07,4.96-11.07,11.07
			c0,6.11,4.96,11.07,11.07,11.07v-3.86C70.1,128.57,67.03,125.49,67.03,121.7z"/>
		<path class="st50" d="M67.03,121.7c0,3.79,3.07,6.87,6.85,6.88v-13.77C70.1,114.83,67.03,117.91,67.03,121.7z"/>
	</g>
	<g>
		<path class="st56" d="M130,182.69L130,182.69c-30.93,0-55.99-25.07-55.99-55.99v5.12c0,30.92,25.07,55.99,55.99,55.99h0
			c30.92,0,55.99-25.07,55.99-55.99v-5.12C186,157.62,160.93,182.69,130,182.69z"/>
		<path class="st49" d="M130,44.76L130,44.76c-30.93,0-55.99,25.07-55.99,55.99v25.94c0,30.92,25.07,55.99,55.99,55.99h0
			c30.92,0,55.99-25.07,55.99-55.99v-25.94C186,69.83,160.93,44.76,130,44.76z"/>
	</g>
	<path class="st29" d="M122.84,123.86c-2.01,0-3.63,1.63-3.63,3.63c0,2.01,1.63,3.63,3.63,3.63s3.63-1.63,3.63-3.63
		C126.47,125.48,124.84,123.86,122.84,123.86z M122.84,129.84c-1.3,0-2.35-1.05-2.35-2.35c0-1.3,1.05-2.35,2.35-2.35
		s2.35,1.05,2.35,2.35C125.19,128.79,124.13,129.84,122.84,129.84z"/>
	<path class="st29" d="M66.48,127.58c-3.12,0-5.65,2.53-5.65,5.65c0,3.12,2.53,5.65,5.65,5.65c3.12,0,5.65-2.53,5.65-5.65
		C72.13,130.11,69.6,127.58,66.48,127.58z M66.48,136.88c-2.02,0-3.65-1.64-3.65-3.65c0-2.02,1.64-3.65,3.65-3.65
		c2.02,0,3.65,1.64,3.65,3.65C70.13,135.24,68.5,136.88,66.48,136.88z"/>
	<path class="st4" d="M155.24,137.93h-50.48c-4.18,0-7.27,3.94-6.23,7.99c3.57,14,16.31,24.36,31.47,24.36s27.9-10.36,31.47-24.36
		C162.51,141.87,159.42,137.93,155.24,137.93z"/>
	<path class="st6" d="M100.49,151.41c5.13,11.14,16.41,18.87,29.52,18.87c4.87,0,9.49-1.07,13.64-2.99
		c-0.11-8.92-7.43-16.19-16.37-16.19h-23.7C102.51,151.11,101.49,151.22,100.49,151.41z"/>
	<path class="st57" d="M112.44,83.41H94.87c-1.12,0-2.03-0.92-2.03-2.03v-0.2c0-1.12,0.92-2.03,2.03-2.03h17.58
		c1.12,0,2.03,0.92,2.03,2.03v0.2C114.48,82.5,113.56,83.41,112.44,83.41z"/>
	<path class="st57" d="M165.14,83.41h-17.58c-1.12,0-2.03-0.92-2.03-2.03v-0.2c0-1.12,0.92-2.03,2.03-2.03h17.58
		c1.12,0,2.03,0.92,2.03,2.03v0.2C167.18,82.5,166.26,83.41,165.14,83.41z"/>
	<path class="st7" d="M154,137.93h-48.94v1.38c0,2.36,1.91,4.27,4.27,4.27h40.4c2.36,0,4.27-1.91,4.27-4.27V137.93z"/>
	<path class="st11" d="M111.63,80.85H95.68c-1.57,0-2.85-1.28-2.85-2.85v-0.28c0-1.57,1.28-2.85,2.85-2.85h15.95
		c1.57,0,2.85,1.28,2.85,2.85v0.28C114.48,79.57,113.2,80.85,111.63,80.85z"/>
	<path class="st11" d="M164.33,80.85h-15.95c-1.57,0-2.85-1.28-2.85-2.85v-0.28c0-1.57,1.28-2.85,2.85-2.85h15.95
		c1.57,0,2.85,1.28,2.85,2.85v0.28C167.18,79.57,165.9,80.85,164.33,80.85z"/>
	<path class="st11" d="M143.65,34.41h-33.56c-17.33,0-31.38,14.05-31.38,31.38v1.56h33.56c17.33,0,31.38-14.05,31.38-31.38V34.41z"
		/>
	<path class="st29" d="M66.48,127.58c-3.12,0-5.65,2.53-5.65,5.65c0,3.12,2.53,5.65,5.65,5.65c3.12,0,5.65-2.53,5.65-5.65
		C72.13,130.11,69.6,127.58,66.48,127.58z M66.48,136.88c-2.02,0-3.65-1.64-3.65-3.65c0-2.02,1.64-3.65,3.65-3.65
		c2.02,0,3.65,1.64,3.65,3.65C70.13,135.24,68.5,136.88,66.48,136.88z"/>
	<g>
		<g>
			<circle class="st29" cx="156.35" cy="101.7" r="11.76"/>
		</g>
		<circle class="st11" cx="156.35" cy="101.7" r="5.29"/>
	</g>
	<g>
		<g>
			<circle class="st29" cx="103.65" cy="101.7" r="11.76"/>
		</g>
		<circle class="st11" cx="103.65" cy="101.7" r="5.29"/>
	</g>
	<path class="st29" d="M192.67,127.58c-3.12,0-5.65,2.53-5.65,5.65c0,3.12,2.53,5.65,5.65,5.65s5.65-2.53,5.65-5.65
		C198.32,130.11,195.79,127.58,192.67,127.58z M192.67,136.88c-2.02,0-3.65-1.64-3.65-3.65c0-2.02,1.64-3.65,3.65-3.65
		s3.65,1.64,3.65,3.65C196.33,135.24,194.69,136.88,192.67,136.88z"/>
	<path class="st50" d="M127.92,125.06c-3.6,0-6.51-2.92-6.51-6.51v3.62c0,3.6,2.92,6.51,6.51,6.51c3.6,0,6.51-2.92,6.51-6.51v-3.62
		C134.43,122.15,131.52,125.06,127.92,125.06z"/>
	<path class="st58" d="M122.62,39.5h-8.34c-1.34,0-2.44-1.1-2.44-2.44v-0.24c0-1.34,1.1-2.44,2.44-2.44h8.34
		c1.34,0,2.44,1.1,2.44,2.44v0.24C125.05,38.4,123.96,39.5,122.62,39.5z"/>
	<path class="st58" d="M111.96,48.88H96.37c-1.34,0-2.44-1.1-2.44-2.44V46.2c0-1.34,1.1-2.44,2.44-2.44h15.59
		c1.34,0,2.44,1.1,2.44,2.44v0.24C114.39,47.78,113.3,48.88,111.96,48.88z"/>
</g>
</svg>
