<svg xmlns="http://www.w3.org/2000/svg" viewBox="0 0 250 250"><style>.st1{fill:#e62b39}.st2{fill:#f7a41a}.st4{fill:#e41d20}.st5{fill:#5bb130}</style><g id="Laag_7"><path class="st1" d="M40.3 240h-3.8c-2 0-3.6-1.6-3.6-3.6v-29.9l7.3-1.9V240z"/><path d="M30.6 75.7c-5.3 0-9.6 4.3-9.6 9.6s4.3 9.6 9.6 9.6c.8 0 1.6-.1 2.4-.3V76c-.8-.1-1.6-.3-2.4-.3zm0 99c-5.3 0-9.7 4.4-9.7 9.6s4.4 9.6 9.7 9.6c.8 0 1.6-.1 2.4-.3V175c-.8-.2-1.6-.3-2.4-.3z" fill="none"/><path class="st2" d="M33 167.3c-.8-.1-1.6-.2-2.4-.2-9.6 0-17.3 7.7-17.3 17.2s7.7 17.2 17.3 17.2c.8 0 1.6-.1 2.4-.2v5.2l7.3-1.9v-50l-7.3 1.9v10.8zm-2.4 26.6c-5.3 0-9.7-4.3-9.7-9.6s4.4-9.6 9.7-9.6c.8 0 1.6.1 2.4.3v18.6c-.8.2-1.6.3-2.4.3z"/><path d="M44.8 161.2l.2 42.1 20.8-5.3c-7.5-9-13.2-19.5-17-31.3-.4-1.3.4-2.7 1.7-3l76.4-19.6c2.1-.5 3.7 1.8 2.6 3.6l-23.7 40 4-1 1.5-.4 21.6-36.5c1.1-1.9 3.9-1.5 4.4.7l7 27.4.4-.1 3.6-.9-7.1-27.5c-.5-2.1 1.7-3.7 3.6-2.7l36.6 21.7 1.9-.5 3.6-.9-40-23.7c-1.9-1.1-1.5-3.9.6-4.4l76.4-19.5c1.3-.4 2.7.5 2.9 1.9 2.4 12 2.4 24.1.2 35.5l5.6-1.4-.2-42.1-187.6 47.9z" fill="#f8f3ba"/><path class="st2" d="M127 144.2l-76.4 19.6c-1.3.3-2.1 1.7-1.7 3 3.7 11.8 9.5 22.3 17 31.3l8.5-2.2 30.4-7.8 1.1-.3 23.7-40c1-1.9-.6-4.1-2.6-3.6zm6 5.6l-21.6 36.5 33-8.4-7-27.4c-.5-2.2-3.3-2.6-4.4-.7zm8.3-.4l7.1 27.5h.1l33.1-8.4-36.6-21.7c-2-1.1-4.2.5-3.7 2.6zm85.5-28.1c-.3-1.4-1.6-2.2-2.9-1.9l-76.4 19.5c-2.1.6-2.5 3.3-.6 4.4l40 23.7 1.5-.4 30.5-7.8 8.1-2.1c2.1-11.3 2.2-23.4-.2-35.4z"/><path class="st4" d="M228.7 56.3l3.8-1c.4-.1.1-6.2 0-6.9-.4-2.6-2.2-4.8-3.7-6.8-6.2-7.9-15.3-12.4-19.6-14.5-9.6-4.5-21-6.3-33.8-5.2-9.5.8-18.7 3.4-27.5 5.9-4.6 1.3-9.2 2.6-13.8 3.7-4 .9-8.4 2.3-12.5 1.9-5.7-.5-11.8-5.3-17.2-7.3-6-2.2-12.2-3.6-18.5-4.2-12.4-1.2-24.9-.1-37 2.9-1.3.3-2.5.6-3.8 1v77.5l3.8-1 179.8-46zm-49.3-17.2c.4-1.2 1.3-2.2 2.3-2.9 9-6.7 22-1 25.7 9 .2.4.1.7-.2.8-.9.4-3.4-.5-4-.6-1.9-.5-3.8-1-5.7-1.4-3.2-.6-6.5-.5-9.7-.6-2.1 0-5.8.5-7.6-.9-1-.7-1.2-2.2-.8-3.4z"/><path class="st5" d="M182 76.1c.8.4 1.2.7 1.2.7s-2.4 5.6-6.9 6.8c-4.5 1.3-9.4-2.2-9.4-2.2s.3-.7.9-1.7l-15.5 4c.4 1.4.7 2.9.7 4.4 0 7.9-6.4 14.3-14.3 14.3-6.9 0-12.7-5-14-11.5L104.8 96c.7.4 1 .6 1 .6s-2.4 5.6-6.9 6.9c-4.5 1.3-9.5-2.2-9.5-2.2s.3-.7.9-1.6L45.1 111v42.4l97.4-24.9c-1.1-1.1-2.1-2.4-2.6-4-1.3-4.5 2.2-9.5 2.2-9.5s5.6 2.4 6.9 6.9c.5 1.7.3 3.5-.2 5l83.8-21.4V63.1l-50.6 13zm-65.4 46.2c-2.2 4.2-8.1 5.4-8.1 5.4s-2.4-5.5-.3-9.7c2.2-4.2 8.1-5.4 8.1-5.4s2.5 5.5.3 9.7zm55-14.3c-4-2.4-4.9-8.4-4.9-8.4s5.7-2.1 9.7.3c4 2.4 4.9 8.4 4.9 8.4s-5.6 2.1-9.7-.3z"/><path d="M138.6 102.3c7.9 0 14.3-6.4 14.3-14.3 0-1.5-.3-3-.7-4.4l-27.6 7.1c1.3 6.6 7.1 11.6 14 11.6z" fill="#b1d073"/><path d="M148.9 121.9c-1.3-4.5-6.9-6.9-6.9-6.9s-3.5 5-2.2 9.5c.5 1.6 1.5 3 2.6 4l2.1-.5.4-.1 3.6-.9.3-.1c.4-1.6.6-3.3.1-5zm27.3-38.3c4.5-1.3 6.9-6.8 6.9-6.8s-.4-.3-1.2-.7l-14.3 3.7c-.6 1-.9 1.7-.9 1.7s5 3.4 9.5 2.1zm.3 16.3c-4-2.4-9.7-.3-9.7-.3s.9 6 4.9 8.4c4 2.4 9.7.3 9.7.3s-.9-6-4.9-8.4zm-77.7 3.4c4.5-1.3 6.9-6.9 6.9-6.9s-.4-.3-1-.6l-14.5 3.7c-.6 1-.9 1.6-.9 1.6s5 3.5 9.5 2.2zm9.5 14.6c-2.2 4.2.3 9.7.3 9.7s5.9-1.2 8.1-5.4c2.2-4.2-.3-9.7-.3-9.7s-6 1.3-8.1 5.4z"/><path d="M118.5 17.7c5.4 2.6 7.1 12.5 7.1 12.5 4.9-11.7.1-17.2-2.1-19-.5-.4-1-.7-1-.7-.6-.3-1.2-.6-2-.6-2.3 0-4.2 1.9-4.2 4.2 0 1.6.9 2.9 2.2 3.6z" fill="#4a2812"/><path class="st1" d="M45.1 211.2h187.5v-48l-187.5 48zm63.2-6.5c-1.3 0-2.4-1.1-2.4-2.4 0-.5.3-.8.5-1.2h-.2l2-3.8 2.2 4.1h-.2c.2.3.4.6.4 1 .1 1.2-1 2.3-2.3 2.3zm28.9 0c-1.3 0-2.4-1.1-2.4-2.4 0-.5.3-.8.5-1.2h-.2l2-3.8 2.2 4.1h-.2c.2.3.4.6.4 1 .1 1.2-1 2.3-2.3 2.3zm22.1-13.3c-1.3 0-2.4-1.1-2.4-2.4 0-.5.3-.8.5-1.2h-.2l2-3.8 2.2 4.1h-.2c.2.3.4.6.4 1 .1 1.2-1 2.3-2.3 2.3zm21.4 10c-1.3 0-2.4-1.1-2.4-2.4 0-.5.3-.8.5-1.2h-.2l2-3.8 2.2 4.1h-.2c.2.3.4.6.4 1 .1 1.2-.9 2.3-2.3 2.3zm16.8-13.7c-1.3 0-2.4-1.1-2.4-2.4 0-.5.3-.8.5-1.2h-.2l2-3.8 2.2 4.1h-.2c.2.3.4.6.4 1 0 1.3-1 2.3-2.3 2.3zm23.8-15.9l2-3.8 2.2 4.1h-.2c.2.3.4.6.4 1 0 1.3-1.1 2.4-2.4 2.4-1.3 0-2.4-1.1-2.4-2.4 0-.5.3-.8.5-1.2l-.1-.1zm-2.2 25.7l2-3.8 2.2 4.1h-.2c.2.3.4.6.4 1 0 1.3-1.1 2.4-2.4 2.4-1.3 0-2.4-1.1-2.4-2.4 0-.5.3-.8.5-1.2l-.1-.1z"/><path d="M182.9 198l-2.2-4.1-2 3.8s-.3.7-.3 1.2c0 1.3 1.1 2.4 2.4 2.4 1.3 0 2.4-1.1 2.4-2.4l-.3-.9z"/><path class="st5" d="M45.1 224.2V240h151.6c12.6 0 24.8-6.9 31-17.9l.3-.6c-1.6-.6-4.5 0-6.2 0H45.1v2.7z"/><path d="M221.2 201c1.3 0 2.4-1.1 2.4-2.4 0-.4-.2-1-.2-1l-2.2-4.1-2 3.8s-.3.7-.3 1.2c-.1 1.4 1 2.5 2.3 2.5z"/><path d="M45.1 221.5h183c1.4-2.1 3.1-5.2 4.5-10.3H45.1v10.3z" fill="#deecd1"/><path d="M199.6 184.4l-2.2-4.1-2 3.8s-.3.7-.3 1.2c0 1.3 1.1 2.4 2.4 2.4 1.3 0 2.4-1.1 2.4-2.4l-.3-.9zm-38.1 3.7l-2.2-4.1-2 3.8s-.3.7-.3 1.2c0 1.3 1.1 2.4 2.4 2.4 1.3 0 2.4-1.1 2.4-2.4l-.3-.9zm-22.1 13.3l-2.2-4.1-2 3.8s-.3.7-.3 1.2c0 1.3 1.1 2.4 2.4 2.4 1.3 0 2.4-1.1 2.4-2.4-.1-.4-.3-.9-.3-.9zm-28.9 0l-2.2-4.1-2 3.8s-.3.7-.3 1.2c0 1.3 1.1 2.4 2.4 2.4 1.3 0 2.4-1.1 2.4-2.4-.1-.4-.3-.9-.3-.9zm112.8-26.1c1.3 0 2.4-1.1 2.4-2.4 0-.4-.2-1-.2-1l-2.2-4.1-2 3.8s-.3.7-.3 1.2c0 1.5 1 2.5 2.3 2.5z"/><path class="st5" d="M33 153.4v3.1l7.3-1.8v-50.2l-7.3 1.8z"/><path class="st4" d="M33 31.5v36.7c-.8-.1-1.6-.2-2.4-.2-9.6 0-17.3 7.7-17.3 17.2s7.7 17.2 17.3 17.2c.8 0 1.6-.1 2.4-.2v4.1l7.3-1.9V25.7c-6.5.1-7.3 4.9-7.3 5.8zm0 63.1c-.8.2-1.5.3-2.4.3-5.3 0-9.6-4.4-9.6-9.6 0-5.3 4.3-9.6 9.6-9.6.8 0 1.6.1 2.4.3v18.6z"/><path d="M179.4 39.1c.4-1.2 1.3-2.2 2.3-2.9 9-6.7 22-1 25.7 9 .2.4.1.7-.2.8-.9.4-3.4-.5-4-.6-1.9-.5-3.8-1-5.7-1.4-3.2-.6-6.5-.5-9.7-.6-2.1 0-5.8.5-7.6-.9-1-.7-1.2-2.2-.8-3.4z" fill="#fff"/></g></svg>