<?xml version="1.0" encoding="utf-8"?>
<!-- Generator: Adobe Illustrator 24.0.0, SVG Export Plug-In . SVG Version: 6.00 Build 0)  -->
<svg version="1.1" xmlns="http://www.w3.org/2000/svg" xmlns:xlink="http://www.w3.org/1999/xlink" x="0px" y="0px"
	 viewBox="0 0 250 250" style="enable-background:new 0 0 250 250;" xml:space="preserve">
<style type="text/css">
	.st0{fill:none;}
	.st1{fill:#E62B39;}
	.st2{fill:#F7A41A;}
	.st3{fill:#F8F3BA;}
	.st4{fill:#E41D20;}
	.st5{fill:#5BB130;}
	.st6{fill:#B1D073;}
	.st7{fill:#4A2812;}
	.st8{fill:#DEECD1;}
	.st9{fill:#FFFFFF;}
	.st10{fill:#F4C7C6;}
	.st11{fill:none;stroke:#FFFFFF;stroke-width:2;stroke-linecap:round;stroke-miterlimit:10;}
	.st12{display:none;}
	.st13{display:inline;opacity:0.5;}
	.st14{fill:#CF8E09;}
</style>
<g id="Laag_1">
</g>
<g id="Laag_3">
</g>
<g id="Laag_4">
</g>
<g id="Laag_5">
</g>
<g id="Laag_6">
</g>
<g id="Laag_7">
	<g>
		<g>
			<path class="st1" d="M40.3,240h-3.8c-2,0-3.6-1.6-3.6-3.6l0-29.9l7.3-1.9V240z"/>
			<path class="st0" d="M30.6,75.7c-5.3,0-9.6,4.3-9.6,9.6s4.3,9.6,9.6,9.6c0.8,0,1.6-0.1,2.4-0.3V76C32.2,75.9,31.4,75.7,30.6,75.7
				z"/>
			<path class="st0" d="M30.6,174.7c-5.3,0-9.7,4.4-9.7,9.6s4.4,9.6,9.7,9.6c0.8,0,1.6-0.1,2.4-0.3V175
				C32.2,174.8,31.4,174.7,30.6,174.7z"/>
			<path class="st2" d="M33,167.3c-0.8-0.1-1.6-0.2-2.4-0.2c-9.6,0-17.3,7.7-17.3,17.2c0,9.5,7.7,17.2,17.3,17.2
				c0.8,0,1.6-0.1,2.4-0.2v3v2.2l7.3-1.9v-0.3v-5.7v-14.2V170v-15.4l-7.3,1.9V167.3z M30.6,193.9c-5.3,0-9.7-4.3-9.7-9.6
				s4.4-9.6,9.7-9.6c0.8,0,1.6,0.1,2.4,0.3v18.6C32.2,193.8,31.4,193.9,30.6,193.9z"/>
			<path class="st3" d="M44.8,161.2l0.2,42.1l20.8-5.3c-7.5-9-13.2-19.5-17-31.3c-0.4-1.3,0.4-2.7,1.7-3l76.4-19.6
				c2.1-0.5,3.7,1.8,2.6,3.6l-23.7,40l4-1h0l1.5-0.4l21.6-36.5c1.1-1.9,3.9-1.5,4.4,0.7l7,27.4l0.4-0.1l3.6-0.9l-7.1-27.5
				c-0.5-2.1,1.7-3.7,3.6-2.7l36.6,21.7l1.9-0.5l3.6-0.9l-40-23.7c-1.9-1.1-1.5-3.9,0.6-4.4l76.4-19.5c1.3-0.4,2.7,0.5,2.9,1.9
				c2.4,12,2.4,24.1,0.2,35.5l5.6-1.4l-0.2-42.1L44.8,161.2z"/>
			<path class="st2" d="M127,144.2l-76.4,19.6c-1.3,0.3-2.1,1.7-1.7,3c3.7,11.8,9.5,22.3,17,31.3l8.5-2.2l30.4-7.8l1.1-0.3l23.7-40
				C130.6,145.9,129,143.7,127,144.2z"/>
			<path class="st2" d="M133,149.8l-21.6,36.5l33-8.4l-7-27.4C136.9,148.3,134.1,147.9,133,149.8z"/>
			<path class="st2" d="M141.3,149.4l7.1,27.5h0.1l33.1-8.4l-36.6-21.7C143,145.7,140.8,147.3,141.3,149.4z"/>
			<path class="st2" d="M226.8,121.3c-0.3-1.4-1.6-2.2-2.9-1.9l-76.4,19.5c-2.1,0.6-2.5,3.3-0.6,4.4l40,23.7l1.5-0.4l30.5-7.8
				l8.1-2.1C229.1,145.4,229.2,133.3,226.8,121.3z"/>
			<path class="st4" d="M228.7,56.3c0,0,3.8-1,3.8-1c0.4-0.1,0.1-6.2,0-6.9c-0.4-2.6-2.2-4.8-3.7-6.8c-6.2-7.9-15.3-12.4-19.6-14.5
				c-9.6-4.5-21-6.3-33.8-5.2c-9.5,0.8-18.7,3.4-27.5,5.9c-4.6,1.3-9.2,2.6-13.8,3.7c-4,0.9-8.4,2.3-12.5,1.9
				c-5.7-0.5-11.8-5.3-17.2-7.3c-6-2.2-12.2-3.6-18.5-4.2c-12.4-1.2-24.9-0.1-37,2.9c-1.3,0.3-2.5,0.6-3.8,1v77.5l3.8-1L228.7,56.3z
				 M179.4,39.1c0.4-1.2,1.3-2.2,2.3-2.9c9-6.7,22-1,25.7,9c0.2,0.4,0.1,0.7-0.2,0.8c-0.9,0.4-3.4-0.5-4-0.6c-1.9-0.5-3.8-1-5.7-1.4
				c-3.2-0.6-6.5-0.5-9.7-0.6c-2.1,0-5.8,0.5-7.6-0.9C179.2,41.8,179,40.3,179.4,39.1z"/>
			<path class="st5" d="M182,76.1c0.8,0.4,1.2,0.7,1.2,0.7s-2.4,5.6-6.9,6.8c-4.5,1.3-9.4-2.2-9.4-2.2s0.3-0.7,0.9-1.7l-15.5,4
				c0.4,1.4,0.7,2.9,0.7,4.4c0,7.9-6.4,14.3-14.3,14.3c-6.9,0-12.7-5-14-11.5l-19.9,5.1c0.7,0.4,1,0.6,1,0.6s-2.4,5.6-6.9,6.9
				c-4.5,1.3-9.5-2.2-9.5-2.2s0.3-0.7,0.9-1.6L45.1,111v42.4l97.4-24.9c-1.1-1.1-2.1-2.4-2.6-4c-1.3-4.5,2.2-9.5,2.2-9.5
				s5.6,2.4,6.9,6.9c0.5,1.7,0.3,3.5-0.2,5l83.8-21.4V63.1L182,76.1z M116.6,122.3c-2.2,4.2-8.1,5.4-8.1,5.4s-2.4-5.5-0.3-9.7
				c2.2-4.2,8.1-5.4,8.1-5.4S118.8,118.1,116.6,122.3z M171.6,108c-4-2.4-4.9-8.4-4.9-8.4s5.7-2.1,9.7,0.3c4,2.4,4.9,8.4,4.9,8.4
				S175.7,110.4,171.6,108z"/>
			<path class="st6" d="M138.6,102.3c7.9,0,14.3-6.4,14.3-14.3c0-1.5-0.3-3-0.7-4.4c0,0,0,0,0,0l-27.6,7.1
				C125.9,97.3,131.7,102.3,138.6,102.3z"/>
			<path d="M148.9,121.9c-1.3-4.5-6.9-6.9-6.9-6.9s-3.5,5-2.2,9.5c0.5,1.6,1.5,3,2.6,4l2.1-0.5l0.4-0.1l3.6-0.9h0l0.3-0.1
				C149.2,125.3,149.4,123.6,148.9,121.9z"/>
			<path d="M176.2,83.6c4.5-1.3,6.9-6.8,6.9-6.8s-0.4-0.3-1.2-0.7l-14.3,3.7c-0.6,1-0.9,1.7-0.9,1.7S171.7,84.9,176.2,83.6z"/>
			<path d="M176.5,99.9c-4-2.4-9.7-0.3-9.7-0.3s0.9,6,4.9,8.4c4,2.4,9.7,0.3,9.7,0.3S180.5,102.3,176.5,99.9z"/>
			<path d="M98.8,103.3c4.5-1.3,6.9-6.9,6.9-6.9s-0.4-0.3-1-0.6l-14.5,3.7c-0.6,1-0.9,1.6-0.9,1.6S94.3,104.6,98.8,103.3z"/>
			<path d="M108.3,117.9c-2.2,4.2,0.3,9.7,0.3,9.7s5.9-1.2,8.1-5.4c2.2-4.2-0.3-9.7-0.3-9.7S110.4,113.8,108.3,117.9z"/>
			<path class="st7" d="M118.5,17.7L118.5,17.7c5.4,2.6,7.1,12.5,7.1,12.5c4.9-11.7,0.1-17.2-2.1-19c0,0,0,0,0,0
				c-0.5-0.4-1-0.7-1-0.7l0,0c-0.6-0.3-1.2-0.6-2-0.6c-2.3,0-4.2,1.9-4.2,4.2C116.3,15.7,117.2,17,118.5,17.7z"/>
			<path class="st1" d="M45.1,211.2l187.5,0l0-48L45.1,211.2z M108.3,204.7c-1.3,0-2.4-1.1-2.4-2.4c0-0.5,0.3-0.8,0.5-1.2l-0.2,0
				l2-3.8l2.2,4.1l-0.2,0c0.2,0.3,0.4,0.6,0.4,1C110.7,203.6,109.6,204.7,108.3,204.7z M137.2,204.7c-1.3,0-2.4-1.1-2.4-2.4
				c0-0.5,0.3-0.8,0.5-1.2l-0.2,0l2-3.8l2.2,4.1l-0.2,0c0.2,0.3,0.4,0.6,0.4,1C139.6,203.6,138.5,204.7,137.2,204.7z M159.3,191.4
				c-1.3,0-2.4-1.1-2.4-2.4c0-0.5,0.3-0.8,0.5-1.2l-0.2,0l2-3.8l2.2,4.1l-0.2,0c0.2,0.3,0.4,0.6,0.4,1
				C161.7,190.3,160.6,191.4,159.3,191.4z M180.7,201.4c-1.3,0-2.4-1.1-2.4-2.4c0-0.5,0.3-0.8,0.5-1.2l-0.2,0l2-3.8l2.2,4.1l-0.2,0
				c0.2,0.3,0.4,0.6,0.4,1C183.1,200.3,182.1,201.4,180.7,201.4z M197.5,187.7c-1.3,0-2.4-1.1-2.4-2.4c0-0.5,0.3-0.8,0.5-1.2l-0.2,0
				l2-3.8l2.2,4.1l-0.2,0c0.2,0.3,0.4,0.6,0.4,1C199.8,186.7,198.8,187.7,197.5,187.7z M221.3,171.8l2-3.8l2.2,4.1l-0.2,0
				c0.2,0.3,0.4,0.6,0.4,1c0,1.3-1.1,2.4-2.4,2.4c-1.3,0-2.4-1.1-2.4-2.4c0-0.5,0.3-0.8,0.5-1.2L221.3,171.8z M219.1,197.5l2-3.8
				l2.2,4.1l-0.2,0c0.2,0.3,0.4,0.6,0.4,1c0,1.3-1.1,2.4-2.4,2.4c-1.3,0-2.4-1.1-2.4-2.4c0-0.5,0.3-0.8,0.5-1.2L219.1,197.5z"/>
			<path d="M182.9,198l-2.2-4.1l-2,3.8c0,0-0.3,0.7-0.3,1.2c0,1.3,1.1,2.4,2.4,2.4c1.3,0,2.4-1.1,2.4-2.4
				C183.1,198.6,182.9,198,182.9,198z"/>
			<path class="st5" d="M45.1,224.2V240c0,0,151.6,0,151.6,0c12.6,0,24.8-6.9,31-17.9c0.1-0.2,0.2-0.4,0.3-0.6c-1.6-0.6-4.5,0-6.2,0
				c-4.3,0-8.7,0-13,0c-6.1,0-12.2,0-18.3,0c-7.4,0-14.7,0-22.1,0c-8.1,0-16.1,0-24.2,0c-8.2,0-16.5,0-24.7,0c-7.9,0-15.7,0-23.6,0
				c-6.9,0-13.9,0-20.8,0c-5.5,0-11,0-16.5,0c-3.5,0-7,0-10.5,0c-0.1,0-3,0-3,0V224.2z"/>
			<path d="M221.2,201c1.3,0,2.4-1.1,2.4-2.4c0-0.4-0.2-1-0.2-1l-2.2-4.1l-2,3.8c0,0-0.3,0.7-0.3,1.2
				C218.8,199.9,219.9,201,221.2,201z"/>
			<path class="st8" d="M45.1,221.5h183c1.4-2.1,3.1-5.2,4.5-10.3l-187.5,0V221.5z"/>
			<path d="M199.6,184.4l-2.2-4.1l-2,3.8c0,0-0.3,0.7-0.3,1.2c0,1.3,1.1,2.4,2.4,2.4c1.3,0,2.4-1.1,2.4-2.4
				C199.8,185,199.6,184.4,199.6,184.4z"/>
			<path d="M161.5,188.1l-2.2-4.1l-2,3.8c0,0-0.3,0.7-0.3,1.2c0,1.3,1.1,2.4,2.4,2.4c1.3,0,2.4-1.1,2.4-2.4
				C161.7,188.7,161.5,188.1,161.5,188.1z"/>
			<path d="M139.4,201.4l-2.2-4.1l-2,3.8c0,0-0.3,0.7-0.3,1.2c0,1.3,1.1,2.4,2.4,2.4c1.3,0,2.4-1.1,2.4-2.4
				C139.6,201.9,139.4,201.4,139.4,201.4z"/>
			<path d="M110.5,201.4l-2.2-4.1l-2,3.8c0,0-0.3,0.7-0.3,1.2c0,1.3,1.1,2.4,2.4,2.4c1.3,0,2.4-1.1,2.4-2.4
				C110.7,201.9,110.5,201.4,110.5,201.4z"/>
			<path d="M223.3,175.3c1.3,0,2.4-1.1,2.4-2.4c0-0.4-0.2-1-0.2-1l-2.2-4.1l-2,3.8c0,0-0.3,0.7-0.3,1.2
				C221,174.3,222,175.3,223.3,175.3z"/>
			<polygon class="st5" points="33,153.4 33,156.5 40.3,154.7 40.3,153.4 40.3,104.5 33,106.3 			"/>
			<path class="st4" d="M33,31.5l0,36.7c-0.8-0.1-1.6-0.2-2.4-0.2c-9.6,0-17.3,7.7-17.3,17.2s7.7,17.2,17.3,17.2
				c0.8,0,1.6-0.1,2.4-0.2v4.1l7.3-1.9l0-78.7C33.8,25.8,33,30.6,33,31.5z M33,94.6c-0.8,0.2-1.5,0.3-2.4,0.3
				c-5.3,0-9.6-4.4-9.6-9.6c0-5.3,4.3-9.6,9.6-9.6c0.8,0,1.6,0.1,2.4,0.3V94.6z"/>
		</g>
		<path class="st9" d="M179.4,39.1c0.4-1.2,1.3-2.2,2.3-2.9c9-6.7,22-1,25.7,9c0.2,0.4,0.1,0.7-0.2,0.8c-0.9,0.4-3.4-0.5-4-0.6
			c-1.9-0.5-3.8-1-5.7-1.4c-3.2-0.6-6.5-0.5-9.7-0.6c-2.1,0-5.8,0.5-7.6-0.9C179.2,41.8,179,40.3,179.4,39.1z"/>
	</g>
</g>
<g id="Laag_2" class="st12">
	<g class="st13">
		<path class="st14" d="M240.1,10v230h-230V10H240.1 M250.1,0H0.1v250h250V0L250.1,0z"/>
	</g>
</g>
</svg>
