<svg xmlns="http://www.w3.org/2000/svg" viewBox="0 0 256 256"><style>.st8{fill:#f4bab0}.st11{fill:#282828}.st29{fill:#fff}.st45{fill:#db908f}.st59{fill:#c3dd85}.st60{fill:#303030}.st61{fill:#e5aca3}.st63{fill:#776356}.st64{fill:#dbbda9}.st66{fill:#499327}</style><g id="K-headicon"><path class="st59" d="M190.01 206.7v.22c-.25-.01-.51-.02-.76-.02-14.14 0-25.6 11.46-25.6 25.6 0 10.63 14.91 20.08 22.3 24.12 2.5 1.37 5.31 2.07 8.17 2.07h35.72v-12.17c0-21.99-17.83-39.82-39.83-39.82zm-122.37-.21c-1.23 0-2.43.09-3.62.26-21.12.98-37.95 18.41-37.95 39.78v12.17h36.5c2.3 0 4.57-.55 6.62-1.59 7.31-3.74 24.26-13.62 24.26-24.8 0-14.27-11.56-25.82-25.81-25.82z"/><path class="st60" d="M166.26 200.91H95.78c-7.34 0-13.28 5.95-13.28 13.28v173.78h97.04V214.19c.01-7.33-5.94-13.28-13.28-13.28z"/><path class="st61" d="M131.06 205.09c-12.8 0-23.18-10.38-23.18-23.18v11.56c0 12.8 10.38 23.18 23.18 23.18 12.8 0 23.18-10.38 23.18-23.18v-11.56c0 12.81-10.38 23.18-23.18 23.18z"/><path d="M141.1 161.34h-20.09c-7.25 0-13.13 5.88-13.13 13.13v7.44c0 12.8 10.38 23.18 23.18 23.18 12.8 0 23.18-10.38 23.18-23.18v-7.44c0-7.25-5.88-13.13-13.14-13.13z" fill="#d69c9a"/><path class="st63" d="M132.03 153.6h-.82c-39 0-70.61-31.61-70.61-70.61C60.6 43.78 92.38 12 131.59 12h.05c39.21 0 70.99 31.78 70.99 70.99 0 39-31.61 70.61-70.6 70.61z"/><path class="st63" d="M131.09 54.04c15.9 0 28.78-12.88 28.78-28.76 0-.1-.01-.2-.01-.3a65.625 65.625 0 00-28.22-6.34 65.62 65.62 0 00-29.33 6.89c.14 15.76 12.97 28.51 28.78 28.51z"/><path class="st61" d="M131.64 181.42c-36.38 0-65.87-29.47-65.87-65.82v5.37c0 36.35 29.49 65.82 65.87 65.82 36.38 0 65.87-29.47 65.87-65.82v-5.37c0 36.35-29.49 65.82-65.87 65.82z"/><path class="st8" d="M159.86 24.98c0 .1.01.2.01.3 0 15.89-12.89 28.76-28.78 28.76-15.81 0-28.64-12.74-28.78-28.51-21.65 10.78-36.53 33.11-36.53 58.93v31.14c0 36.35 29.49 65.82 65.87 65.82 36.38 0 65.87-29.47 65.87-65.82V84.46c-.01-26.26-15.4-48.92-37.66-59.48z"/><path d="M161.28 128.16h-59.33c-4.92 0-8.54 4.63-7.33 9.4 4.2 16.46 19.17 28.63 36.99 28.63s32.79-12.17 36.99-28.63c1.22-4.77-2.4-9.4-7.32-9.4z" fill="#8b153a"/><path d="M96.92 144c6.03 13.09 19.3 22.18 34.7 22.18 5.73 0 11.15-1.26 16.03-3.51-.13-10.49-8.73-19.03-19.24-19.03h-27.86c-1.25 0-2.46.13-3.63.36z" fill="#ee2161"/><path d="M159.82 128.16H102.3v1.62c0 2.77 2.25 5.01 5.01 5.01h47.5c2.77 0 5.01-2.25 5.01-5.01v-1.62z" fill="#fffefd"/><circle class="st29" cx="162.59" cy="85.57" r="13.83"/><circle class="st11" cx="162.59" cy="85.57" r="7.25"/><circle class="st29" cx="100.65" cy="85.57" r="13.83"/><circle class="st11" cx="100.65" cy="85.57" r="7.25"/><path d="M132.17 118.2c-5.5 0-9.96-4.46-9.96-9.96v5.53c0 5.5 4.46 9.96 9.96 9.96s9.96-4.46 9.96-9.96v-5.53c-.01 5.5-4.46 9.96-9.96 9.96z" fill="#e5a5a1"/><path class="st63" d="M170.43 75.06h-15.68c-2.69 0-4.88-2.2-4.88-4.88v-1.29c0-2.69 2.2-4.88 4.88-4.88h15.68c2.69 0 4.88 2.2 4.88 4.88v1.29c0 2.68-2.2 4.88-4.88 4.88zm-61.95 0H92.8c-2.69 0-4.88-2.2-4.88-4.88v-1.29c0-2.69 2.2-4.88 4.88-4.88h15.68c2.69 0 4.88 2.2 4.88 4.88v1.29c0 2.68-2.2 4.88-4.88 4.88z"/><path class="st8" d="M205.7 110.02c0-4.53-3.66-8.2-8.19-8.22v-5.38c7.3 0 13.22 5.92 13.22 13.22 0 7.3-5.92 13.22-13.22 13.22v-4.61c4.52-.02 8.19-3.7 8.19-8.23z"/><path class="st45" d="M205.7 110.02c0 4.53-3.66 8.2-8.19 8.22V101.8c4.52.02 8.19 3.69 8.19 8.22z"/><path class="st8" d="M57.59 110.02c0-4.53 3.66-8.2 8.19-8.22v-5.38c-7.3 0-13.22 5.92-13.22 13.22 0 7.3 5.92 13.22 13.22 13.22v-4.61a8.228 8.228 0 01-8.19-8.23z"/><path class="st45" d="M57.59 110.02c0 4.53 3.66 8.2 8.19 8.22V101.8a8.22 8.22 0 00-8.19 8.22z"/><circle class="st64" cx="118.02" cy="22.52" r="5.16"/><circle class="st64" cx="108.93" cy="27.89" r="2.68"/><path d="M97.73 45.44h-8.16a2.74 2.74 0 01-2.73-2.73v-.72c0-1.5 1.23-2.73 2.73-2.73h8.16c1.5 0 2.73 1.23 2.73 2.73v.72c.01 1.5-1.22 2.73-2.73 2.73z" fill="#f9cdc7"/><path class="st66" d="M85.11 381.54h26.09V196.16H85.11c-14.33 0-25.94 11.61-25.94 25.94v133.5c0 14.33 11.62 25.94 25.94 25.94z"/><path class="st59" d="M100.55 186.25h10.66v9.91H91.79V195c0-4.83 3.92-8.75 8.76-8.75z"/><path class="st60" d="M105.23 361.76h.39c.8 0 1.46-.66 1.46-1.46V212.49c0-.8-.66-1.46-1.46-1.46h-.39c-.8 0-1.46.66-1.46 1.46V360.3c0 .8.66 1.46 1.46 1.46z"/><path class="st66" d="M176.31 382.4h-25.46V197.02h25.46c11.71 0 21.2 9.49 21.2 21.2V361.2c0 11.71-9.49 21.2-21.2 21.2z"/><path class="st59" d="M161.5 187.08h-10.66v9.91h19.41v-1.16c0-4.83-3.91-8.75-8.75-8.75z"/></g></svg>