<svg xmlns="http://www.w3.org/2000/svg" viewBox="0 0 256 256"><style>.st11{fill:#282828}.st13{fill:#f4821c}.st15{fill:#e2b39f}.st26{fill:#5b4231}.st29{fill:#fff}.st31{fill:#825f48}.st32{fill:#c47b76}.st34{fill:#8afcff}.st35{fill:#cafeff}</style><g id="K-headicon"><path class="st13" d="M185.9 215.45h-.17c-11.34 0-20.53 9.19-20.53 20.53 0 11.34 9.19 20.53 20.53 20.53h.17v104c0 10.4 8.24 19.1 18.64 19.27 10.62.18 19.29-8.38 19.29-18.96V253.37c-.01-20.94-16.99-37.92-37.93-37.92zm-117.82 0h.17c11.34 0 20.53 9.19 20.53 20.53 0 11.34-9.19 20.53-20.53 20.53h-.17v104c0 10.4-8.24 19.1-18.64 19.27-10.62.18-19.29-8.38-19.29-18.96V253.37c0-20.94 16.98-37.92 37.93-37.92z"/><path d="M173.88 388l23.51-121.26c6.6-33.9-11.5-68.2-43.66-80.81a71.868 71.868 0 00-26.29-4.96c-9.26 0-18.13 1.76-26.29 4.96-32.16 12.61-50.26 46.9-43.66 80.81L81.09 388h92.79z" fill="#fcbc5e"/><circle class="st13" cx="127.68" cy="202.42" r="28.82"/><path transform="rotate(45.001 127.488 258.384)" class="st13" d="M114.02 244.92h26.93v26.93h-26.93z"/><path d="M127.52 210.95c-12.19 0-22.07-9.88-22.07-22.07v13.98c0 12.19 9.88 22.07 22.07 22.07s22.07-9.88 22.07-22.07v-13.98c0 12.19-9.88 22.07-22.07 22.07z" fill="#d3a292"/><path d="M135.45 172.26h-15.87c-7.81 0-14.14 6.33-14.14 14.14v2.48c0 12.19 9.88 22.07 22.07 22.07s22.07-9.88 22.07-22.07v-2.48c.01-7.81-6.32-14.14-14.13-14.14z" fill="#bc8e82"/><path class="st26" d="M212.88 104.72c4.23-1.92 7.18-6.18 7.18-11.13s-2.95-9.21-7.18-11.13c3.59-2.95 5.34-7.83 4.06-12.61-1.28-4.78-5.23-8.13-9.82-8.89 2.7-3.78 3.13-8.94.65-13.23-2.48-4.29-7.16-6.5-11.79-6.05 1.63-4.35.71-9.45-2.79-12.95s-8.6-4.43-12.95-2.79c.45-4.63-1.76-9.31-6.05-11.79s-9.45-2.05-13.23.65c-.76-4.59-4.11-8.54-8.89-9.82-4.78-1.28-9.66.47-12.61 4.06-1.92-4.23-6.18-7.18-11.13-7.18-4.95 0-9.21 2.95-11.13 7.18-2.95-3.59-7.83-5.34-12.61-4.06-4.78 1.28-8.13 5.23-8.89 9.82-3.78-2.7-8.94-3.13-13.23-.65s-6.5 7.16-6.05 11.79c-4.35-1.63-9.45-.71-12.95 2.79s-4.43 8.6-2.79 12.95c-4.63-.45-9.31 1.76-11.79 6.05s-2.05 9.45.65 13.23c-4.59.76-8.54 4.11-9.82 8.89-1.28 4.78.47 9.66 4.06 12.61-4.23 1.92-7.18 6.18-7.18 11.13s2.95 9.21 7.18 11.13c-3.59 2.95-5.34 7.83-4.06 12.61 1.28 4.78 5.23 8.13 9.82 8.89-2.7 3.78-3.13 8.94-.65 13.23s7.16 6.5 11.79 6.05c-1.63 4.35-.71 9.45 2.79 12.95s8.6 4.43 12.95 2.79c-.45 4.63 1.76 9.31 6.05 11.79 4.29 2.48 9.45 2.05 13.23-.65.76 4.59 4.11 8.54 8.89 9.82 4.78 1.28 9.66-.47 12.61-4.06 1.92 4.23 6.18 7.18 11.13 7.18 4.95 0 9.21-2.95 11.13-7.18 2.95 3.59 7.83 5.34 12.61 4.06 4.78-1.28 8.13-5.23 8.89-9.82 3.78 2.7 8.94 3.13 13.23.65 4.29-2.48 6.5-7.16 6.05-11.79 4.35 1.63 9.45.71 12.95-2.79s4.43-8.6 2.79-12.95c4.63.45 9.31-1.76 11.79-6.05 2.48-4.29 2.05-9.45-.65-13.23 4.59-.76 8.54-4.11 9.82-8.89 1.28-4.78-.46-9.65-4.06-12.61z"/><path d="M128.11 188.99c-34.65 0-62.75-28.06-62.75-62.68v7.5c0 34.62 28.09 62.68 62.75 62.68 34.65 0 62.75-28.06 62.75-62.68v-7.5c0 34.62-28.09 62.68-62.75 62.68z" fill="#d3a697"/><path class="st15" d="M128.11 36.37c-34.65 0-62.75 28.06-62.75 62.68v27.26c0 34.62 28.09 62.68 62.75 62.68 34.65 0 62.75-28.06 62.75-62.68V99.05c0-34.61-28.09-62.68-62.75-62.68z"/><path d="M113.59 56.33h-12.88c-1.67 0-3.04-1.37-3.04-3.04v-1.43c0-1.67 1.37-3.04 3.04-3.04h12.88c1.67 0 3.04 1.37 3.04 3.04v1.43c0 1.67-1.37 3.04-3.04 3.04z" fill="#f4d7ce"/><path d="M156.29 140.66h-56.5c-4.68 0-8.13 4.41-6.98 8.95 4 15.67 18.25 27.26 35.23 27.26s31.23-11.59 35.23-27.26c1.16-4.54-2.3-8.95-6.98-8.95z" fill="#8b153a"/><path d="M95 155.75c5.74 12.47 18.37 21.13 33.04 21.13 5.45 0 10.62-1.2 15.26-3.35-.12-9.98-8.31-18.12-18.33-18.12H98.45c-1.18 0-2.33.12-3.45.34z" fill="#ee2161"/><path d="M154.91 140.66h-54.78v1.55a4.78 4.78 0 004.78 4.78h45.23a4.78 4.78 0 004.78-4.78v-1.55z" fill="#fffefd"/><circle class="st29" cx="157.54" cy="100.11" r="13.17"/><circle class="st11" cx="157.54" cy="100.11" r="5.93"/><circle class="st29" cx="98.55" cy="100.11" r="13.17"/><circle class="st11" cx="98.55" cy="100.11" r="5.93"/><path d="M128.57 131.18c-6.62 0-11.98-4.24-11.98-9.48v5.27c0 5.24 5.36 9.48 11.98 9.48s11.98-4.24 11.98-9.48v-5.27c0 5.24-5.36 9.48-11.98 9.48z" fill="#cc9d8d"/><circle class="st31" cx="86.81" cy="36.1" r="6.55"/><circle class="st31" cx="182.06" cy="38.72" r="3.93"/><circle class="st31" cx="73.7" cy="32.61" r="3.06"/><circle class="st31" cx="95.11" cy="24.31" r="3.5"/><path class="st15" d="M57.54 124.17c0-4.33 3.5-7.84 7.83-7.86v-5.15c-6.98 0-12.64 5.66-12.64 12.64s5.66 12.64 12.64 12.64v-4.41a7.848 7.848 0 01-7.83-7.86z"/><path class="st32" d="M57.54 124.17c0 4.33 3.5 7.84 7.83 7.86V116.3c-4.33.03-7.83 3.54-7.83 7.87z"/><path class="st15" d="M198.69 121.64c0-4.33-3.5-7.84-7.83-7.86v-5.15c6.98 0 12.64 5.66 12.64 12.64s-5.66 12.64-12.64 12.64v-4.41c4.32-.02 7.83-3.53 7.83-7.86z"/><path class="st32" d="M198.69 121.64c0 4.33-3.5 7.84-7.83 7.86v-15.73c4.32.02 7.83 3.54 7.83 7.87z"/><path d="M110.28 79.62H81.29c-1.54 0-2.8-1.26-2.8-2.8v-1.31c0-1.54 1.26-2.8 2.8-2.8h28.98c1.54 0 2.8 1.26 2.8 2.8v1.31c0 1.54-1.26 2.8-2.79 2.8zm64.88 0h-27.67c-1.9-.39-3.45-1.95-3.45-3.85 0-1.9 1.55-3.45 3.45-3.45h27.67c1.9 0 3.45 1.55 3.45 3.45.01 1.9-1.55 3.46-3.45 3.85z" fill="#c18f7e"/><path class="st26" d="M108.81 76.14H82.76a4.28 4.28 0 01-4.27-4.27v-2a4.28 4.28 0 014.27-4.27h26.05a4.28 4.28 0 014.27 4.27v2c-.01 2.35-1.93 4.27-4.27 4.27zm65.54 0H148.3a4.28 4.28 0 01-4.27-4.27v-2a4.28 4.28 0 014.27-4.27h26.05a4.28 4.28 0 014.27 4.27v2a4.28 4.28 0 01-4.27 4.27z"/><path d="M176.24 83.1h-31.21c-3.93 0-7.12 3.19-7.12 7.12v3.7h-20.07v-3.7c0-3.93-3.19-7.12-7.12-7.12h-31.2c-3.93 0-7.12 3.19-7.12 7.12v15.6c0 12.55 10.18 22.73 22.73 22.73s22.73-10.18 22.73-22.73v-4.33h20.07v4.33c0 12.55 10.18 22.73 22.73 22.73s22.73-10.18 22.73-22.73v-15.6c-.02-3.93-3.21-7.12-7.15-7.12zm-65.97 22.72c0 8.37-6.78 15.15-15.15 15.15-8.37 0-15.15-6.78-15.15-15.15V90.67h30.3v15.15zm65.52 0c0 8.37-6.78 15.15-15.15 15.15-8.37 0-15.15-6.78-15.15-15.15V90.67h30.3v15.15z" fill="#492d1a"/><path class="st34" d="M79.97 90.67v12.23l12.22-12.23zm5.57 26.89c2.61 2.13 5.94 3.41 9.57 3.41 8.37 0 15.15-6.78 15.15-15.15V92.84l-24.72 24.72zm12.83-26.89l-18.11 18.11c.23 1.14.59 2.24 1.06 3.27l21.38-21.38h-4.33z"/><path class="st35" d="M92.19 90.67L79.97 102.9v2.93c0 1.01.1 2 .29 2.95l18.11-18.11h-6.18zm18.08 0h-7.58l-21.38 21.38a15.09 15.09 0 004.23 5.51l24.73-24.73v-2.16z"/><path class="st34" d="M145.49 90.67v12.23l12.22-12.23zm5.58 26.89c2.61 2.13 5.94 3.41 9.57 3.41 8.37 0 15.15-6.78 15.15-15.15V92.84l-24.72 24.72zm12.82-26.89l-18.11 18.11c.23 1.14.59 2.24 1.06 3.27l21.38-21.38h-4.33z"/><path class="st35" d="M157.71 90.67l-12.23 12.23v2.93c0 1.01.1 2 .29 2.95l18.11-18.11h-6.17zm18.08 0h-7.58l-21.38 21.38a15.09 15.09 0 004.23 5.51l24.73-24.73v-2.16z"/></g></svg>