<svg xmlns="http://www.w3.org/2000/svg" viewBox="0 0 256 256"><style>.st8{fill:#f4bab0}.st11{fill:#282828}.st29{fill:#fff}.st39{fill:#e61421}.st41{fill:#8e6444}.st45{fill:#db908f}</style><g id="K-headicon"><path d="M207.01 249.18c0-21.47-17.4-38.87-38.87-38.87v.16h-.11c-14.01 0-25.37 11.36-25.37 25.37 0 14.01 7.78 23.73 24.14 24.96.94.07 3.09.35 4.01.25h36.2v-11.87zM88.65 210.47v-.16c-21.47 0-38.87 17.4-38.87 38.87v11.88h36.09c.91.1 1.84-.25 2.78-.25 14.01 0 25.37-10.95 25.37-24.96-.01-14.02-11.36-25.38-25.37-25.38z" fill="#c11414"/><path d="M153.43 197.36c-7.45-4.09-16.35-6.48-25.91-6.48-9.56 0-18.46 2.39-25.91 6.48-13 7.14-21.59 19.48-21.59 33.51v156.52h95.02V230.87c-.01-14.04-8.61-26.38-21.61-33.51z" fill="#fc4949"/><path class="st39" d="M127.52 223.96c14.31 0 25.91-11.6 25.91-25.91v-.69c-7.45-4.09-16.35-6.48-25.91-6.48-9.56 0-18.46 2.39-25.91 6.48v.69c-.01 14.3 11.6 25.91 25.91 25.91z"/><path class="st39" d="M127.52 250.26h-.01c-2.97 0-5.39-2.43-5.39-5.39V221.1c0-2.97 2.43-5.39 5.39-5.39h.01c2.97 0 5.39 2.43 5.39 5.39v23.77c.01 2.96-2.42 5.39-5.39 5.39z"/><circle class="st29" cx="127.52" cy="226.51" r="1.08"/><circle class="st29" cx="127.52" cy="232.99" r="1.08"/><circle class="st29" cx="127.52" cy="239.46" r="1.08"/><circle class="st29" cx="127.52" cy="245.94" r="1.08"/><path class="st8" d="M127.52 204.89c-12.49 0-22.62-10.13-22.62-22.62v15.14c0 12.49 10.13 22.62 22.62 22.62s22.62-10.13 22.62-22.62v-15.14c0 12.49-10.13 22.62-22.62 22.62z"/><path d="M137.32 166.04h-19.61c-7.08 0-12.82 5.74-12.82 12.82v3.4c0 12.49 10.13 22.62 22.62 22.62s22.62-10.13 22.62-22.62v-3.4c.01-7.08-5.73-12.82-12.81-12.82z" fill="#d39f9c"/><path class="st41" d="M185.54 120.02h-.02c-5.93 0-10.79-4.85-10.79-10.79v-73.5h.02c11.91 0 21.57 9.66 21.57 21.57v51.93c.01 5.94-4.85 10.79-10.78 10.79zm-115.24-.41h-.02c-5.93 0-10.79-4.85-10.79-10.79v-62.3c0-5.93 4.85-10.79 10.79-10.79h.02c5.93 0 10.79 4.85 10.79 10.79v62.3c0 5.94-4.85 10.79-10.79 10.79z"/><path class="st8" d="M127.99 190.88c-35.52 0-64.31-28.76-64.31-64.24V91c0-35.48 28.79-64.24 64.31-64.24S192.3 55.52 192.3 91v35.63c0 35.48-28.79 64.25-64.31 64.25z"/><path d="M127.99 184.74c-31.17 0-57.25-21.42-63.81-50.09 3.95 31.7 31.01 56.23 63.81 56.23s59.86-24.53 63.81-56.23c-6.56 28.67-32.63 50.09-63.81 50.09z" fill="#dda69e"/><path class="st8" d="M192.3 91c0-35.48-28.79-64.24-64.31-64.24S63.68 55.52 63.68 91v35.63c0 2.71.17 5.39.5 8.02 6.56 28.67 32.64 50.09 63.81 50.09s57.25-21.42 63.81-50.09c.33-2.63.5-5.3.5-8.02V91z"/><path d="M99.1 133.65h57.91c4.8 0 8.34 4.52 7.15 9.17-4.1 16.06-18.71 27.95-36.11 27.95s-32.01-11.88-36.11-27.95c-1.17-4.65 2.36-9.17 7.16-9.17z" fill="#8b153a"/><path d="M139.87 156.32H118.4c-3.3 0-6-2.7-6-6v-.96c0-3.3 2.7-6 6-6h21.47c3.3 0 6 2.7 6 6v.96c0 3.3-2.7 6-6 6z" fill="#720e32"/><path d="M161.93 149.11c-5.89 12.78-18.83 21.65-33.87 21.65-5.59 0-10.89-1.23-15.64-3.43.12-10.23 8.52-18.57 18.78-18.57h27.2c1.2.01 2.38.13 3.53.35z" fill="#ee2161"/><path d="M167.45 75.61h-18.31c-1.79 0-3.26-1.47-3.26-3.26v-.01c0-1.79 1.47-3.26 3.26-3.26h18.31c1.79 0 3.26 1.47 3.26 3.26v.01c0 1.79-1.47 3.26-3.26 3.26z" fill="#d89d95"/><path d="M100.53 133.65h56.15v1.58c0 2.7-2.19 4.89-4.89 4.89h-46.36a4.89 4.89 0 01-4.89-4.89v-1.58z" fill="#fffefd"/><path class="st41" d="M165.32 72.1h-14.05c-2.97 0-5.39-2.43-5.39-5.39v-.01c0-2.97 2.43-5.39 5.39-5.39h14.05c2.97 0 5.39 2.43 5.39 5.39v.01c0 2.97-2.43 5.39-5.39 5.39zm22.84-17.27H90.08c-28.59 0-51.77-23.18-51.77-51.77V3h98.08c28.59 0 51.77 23.18 51.77 51.77v.06z"/><circle class="st29" cx="158.29" cy="92.08" r="13.5"/><circle class="st11" cx="158.29" cy="92.08" r="6.07"/><circle class="st29" cx="97.83" cy="92.08" r="13.5"/><circle class="st11" cx="97.83" cy="92.08" r="6.07"/><path d="M128.6 123.93c-5.37 0-9.72-4.35-9.72-9.72v5.4c0 5.37 4.35 9.72 9.72 9.72 5.37 0 9.72-4.35 9.72-9.72v-5.4c0 5.37-4.35 9.72-9.72 9.72z" fill="#e5a5a1"/><path class="st41" d="M104.85 81.82H90.8c-2.97 0-5.39-2.43-5.39-5.39v-.01c0-2.97 2.43-5.39 5.39-5.39h14.05c2.97 0 5.39 2.43 5.39 5.39v.01c0 2.96-2.42 5.39-5.39 5.39z"/><path class="st8" d="M200.29 116.11a8.15 8.15 0 00-8.11-8.15v-5.33c7.24 0 13.1 5.87 13.1 13.1 0 7.24-5.87 13.1-13.1 13.1v-4.57a8.15 8.15 0 008.11-8.15z"/><path class="st45" d="M200.29 116.11a8.15 8.15 0 01-8.11 8.15v-16.3a8.15 8.15 0 018.11 8.15z"/><path class="st8" d="M55.57 116.11a8.15 8.15 0 018.11-8.15v-5.33c-7.24 0-13.1 5.87-13.1 13.1 0 7.24 5.87 13.1 13.1 13.1v-4.57a8.15 8.15 0 01-8.11-8.15z"/><path class="st45" d="M55.57 116.11a8.15 8.15 0 008.11 8.15v-16.3a8.15 8.15 0 00-8.11 8.15z"/><path d="M91.1 63.97H80.46c-1.12 0-2.04-.92-2.04-2.04s.92-2.04 2.04-2.04H91.1c1.12 0 2.04.92 2.04 2.04s-.92 2.04-2.04 2.04z" fill="#f7deda"/><path d="M83.73 11.59H54.68c-1.12 0-2.04-.92-2.04-2.04s.92-2.04 2.04-2.04h29.06c1.12 0 2.04.92 2.04 2.04s-.92 2.04-2.05 2.04zm9.01 10.64H69.41c-1.12 0-2.04-.92-2.04-2.04s.92-2.04 2.04-2.04h23.33c1.12 0 2.04.92 2.04 2.04s-.92 2.04-2.04 2.04zm11.05-10.64h-9.42c-1.12 0-2.04-.92-2.04-2.04s.92-2.04 2.04-2.04h9.42c1.12 0 2.04.92 2.04 2.04s-.92 2.04-2.04 2.04z" fill="#b27d59"/></g></svg>