<svg xmlns="http://www.w3.org/2000/svg" viewBox="0 0 256 256"><style>.st11{fill:#282828}.st29{fill:#fff}.st49{fill:#96522c}.st50{fill:#824527}</style><g id="K-headicon"><path class="st11" d="M128.59 142.64h73.4v111.05h-73.4z"/><path class="st11" d="M133.66 233.92h-6.79c-37.74 0-68.33-30.59-68.33-68.33V93.33C58.54 55.59 89.13 25 126.87 25h6.79C171.4 25 202 55.59 202 93.33v72.26c0 37.74-30.6 68.33-68.34 68.33z"/><path d="M170.9 217.24c-1.32-.24-2.68-.38-4.07-.38-12.24 0-22.17 9.93-22.17 22.17 0 11.73 9.1 21.32 20.63 22.11v.07h34.68c5.72 0 10.35-4.63 10.35-10.35.01-17.28-17.19-31.54-39.42-33.62zm-55.23 21.8c0-12.24-9.93-22.17-22.17-22.17-1.01 0-2.01.07-2.99.21-23.35 1.26-41.78 15.9-41.78 33.79 0 5.72 4.63 10.35 10.35 10.35h34.69v-.01c12.12-.16 21.9-10.02 21.9-22.17z" fill="#c9006e"/><path d="M136.99 261.21v-72.83a49.32 49.32 0 00-7.46-.57c-2.55 0-5.04.19-7.46.57v72.83c0 18.78-15.18 34.02-33.94 34.1v63.77h82.82v-63.77c-18.77-.08-33.96-15.32-33.96-34.1z" fill="#ff61a9"/><path d="M122.07 261.21v-72.83c-19.31 2.96-33.94 17.19-33.94 34.29v72.65c18.76-.1 33.94-15.33 33.94-34.11zm14.92-72.84v72.83c0 18.78 15.19 34.02 33.95 34.11v-72.65c0-17.1-14.64-31.33-33.95-34.29z" fill="#e84697"/><path d="M129.53 198.29c-10.89 0-19.72-8.83-19.72-19.72v14.92c0 10.89 8.83 19.72 19.72 19.72 10.89 0 19.72-8.83 19.72-19.72v-14.92c0 10.9-8.83 19.72-19.72 19.72z" fill="#723c24"/><path d="M138.08 166.16h-17.09c-6.17 0-11.17 5-11.17 11.17v1.24c0 10.89 8.83 19.72 19.72 19.72 10.89 0 19.72-8.83 19.72-19.72v-1.24c-.01-6.16-5.01-11.17-11.18-11.17z" fill="#60311e"/><path class="st49" d="M192.45 121.7c0-3.79-3.07-6.87-6.85-6.88v-4.51c6.11 0 11.07 4.96 11.07 11.07s-4.96 11.07-11.07 11.07v-3.86c3.79-.02 6.85-3.1 6.85-6.89z"/><path class="st50" d="M192.45 121.7c0 3.79-3.07 6.87-6.85 6.88v-13.77c3.79.02 6.85 3.1 6.85 6.89z"/><path class="st49" d="M67.03 121.7c0-3.79 3.07-6.87 6.85-6.88v-4.51c-6.11 0-11.07 4.96-11.07 11.07s4.96 11.07 11.07 11.07v-3.86a6.895 6.895 0 01-6.85-6.89z"/><path class="st50" d="M67.03 121.7c0 3.79 3.07 6.87 6.85 6.88v-13.77c-3.78.02-6.85 3.1-6.85 6.89z"/><path d="M130 182.69c-30.93 0-55.99-25.07-55.99-55.99v5.12c0 30.92 25.07 55.99 55.99 55.99s55.99-25.07 55.99-55.99v-5.12c.01 30.92-25.06 55.99-55.99 55.99z" fill="#7f4325"/><path class="st49" d="M130 44.76c-30.93 0-55.99 25.07-55.99 55.99v25.94c0 30.92 25.07 55.99 55.99 55.99s55.99-25.07 55.99-55.99v-25.94C186 69.83 160.93 44.76 130 44.76z"/><path class="st29" d="M122.84 123.86a3.63 3.63 0 100 7.26 3.63 3.63 0 000-7.26zm0 5.98c-1.3 0-2.35-1.05-2.35-2.35s1.05-2.35 2.35-2.35 2.35 1.05 2.35 2.35-1.06 2.35-2.35 2.35zm-56.36-2.26a5.65 5.65 0 10.001 11.301 5.65 5.65 0 00-.001-11.301zm0 9.3a3.651 3.651 0 010-7.3 3.651 3.651 0 010 7.3z"/><path d="M155.24 137.93h-50.48c-4.18 0-7.27 3.94-6.23 7.99 3.57 14 16.31 24.36 31.47 24.36s27.9-10.36 31.47-24.36c1.04-4.05-2.05-7.99-6.23-7.99z" fill="#8b153a"/><path d="M100.49 151.41c5.13 11.14 16.41 18.87 29.52 18.87 4.87 0 9.49-1.07 13.64-2.99-.11-8.92-7.43-16.19-16.37-16.19h-23.7c-1.07.01-2.09.12-3.09.31z" fill="#ee2161"/><path d="M112.44 83.41H94.87c-1.12 0-2.03-.92-2.03-2.03v-.2c0-1.12.92-2.03 2.03-2.03h17.58c1.12 0 2.03.92 2.03 2.03v.2c0 1.12-.92 2.03-2.04 2.03zm52.7 0h-17.58c-1.12 0-2.03-.92-2.03-2.03v-.2c0-1.12.92-2.03 2.03-2.03h17.58c1.12 0 2.03.92 2.03 2.03v.2c.01 1.12-.91 2.03-2.03 2.03z" fill="#6d3a21"/><path d="M154 137.93h-48.94v1.38c0 2.36 1.91 4.27 4.27 4.27h40.4c2.36 0 4.27-1.91 4.27-4.27v-1.38z" fill="#fffefd"/><path class="st11" d="M111.63 80.85H95.68c-1.57 0-2.85-1.28-2.85-2.85v-.28c0-1.57 1.28-2.85 2.85-2.85h15.95c1.57 0 2.85 1.28 2.85 2.85V78c0 1.57-1.28 2.85-2.85 2.85zm52.7 0h-15.95c-1.57 0-2.85-1.28-2.85-2.85v-.28c0-1.57 1.28-2.85 2.85-2.85h15.95c1.57 0 2.85 1.28 2.85 2.85V78c0 1.57-1.28 2.85-2.85 2.85zm-20.68-46.44h-33.56c-17.33 0-31.38 14.05-31.38 31.38v1.56h33.56c17.33 0 31.38-14.05 31.38-31.38v-1.56z"/><path class="st29" d="M66.48 127.58a5.65 5.65 0 10.001 11.301 5.65 5.65 0 00-.001-11.301zm0 9.3a3.651 3.651 0 010-7.3 3.651 3.651 0 010 7.3z"/><circle class="st29" cx="156.35" cy="101.7" r="11.76"/><circle class="st11" cx="156.35" cy="101.7" r="5.29"/><circle class="st29" cx="103.65" cy="101.7" r="11.76"/><circle class="st11" cx="103.65" cy="101.7" r="5.29"/><path class="st29" d="M192.67 127.58a5.65 5.65 0 10.001 11.301 5.65 5.65 0 00-.001-11.301zm0 9.3a3.651 3.651 0 010-7.3c2.01 0 3.65 1.64 3.65 3.65.01 2.01-1.63 3.65-3.65 3.65z"/><path class="st50" d="M127.92 125.06a6.51 6.51 0 01-6.51-6.51v3.62a6.51 6.51 0 0013.02 0v-3.62c0 3.6-2.91 6.51-6.51 6.51z"/><path d="M122.62 39.5h-8.34a2.45 2.45 0 01-2.44-2.44v-.24c0-1.34 1.1-2.44 2.44-2.44h8.34c1.34 0 2.44 1.1 2.44 2.44v.24c-.01 1.34-1.1 2.44-2.44 2.44zm-10.66 9.38H96.37a2.45 2.45 0 01-2.44-2.44v-.24c0-1.34 1.1-2.44 2.44-2.44h15.59c1.34 0 2.44 1.1 2.44 2.44v.24c-.01 1.34-1.1 2.44-2.44 2.44z" fill="#3f3f3f"/></g></svg>